<?xml version="1.0" encoding="UTF-8"?>
<svg version="1.1" xmlns="http://www.w3.org/2000/svg" width="1024" height="1024">
<path d="M0 0 C4.09868305 0.39919592 8.2046995 0.69849598 12.31201172 0.99316406 C14.45654297 1.23925781 14.45654297 1.23925781 17.45654297 2.23925781 C19.5707033 2.69795137 21.68996258 3.123359 23.81201172 3.54394531 C26.71733107 4.30782544 29.46989041 5.35488905 32.27172852 6.43164062 C34.45836921 7.23993288 36.65539282 7.95267561 38.88232422 8.64160156 C67.46714889 17.550622 94.41608969 31.15154493 119.50732422 47.41113281 C122.35587446 49.33405883 122.35587446 49.33405883 125.45654297 50.23925781 C127.13177692 51.56181093 128.79761115 52.896313 130.45654297 54.23925781 C131.63216797 54.91988281 131.63216797 54.91988281 132.83154297 55.61425781 C135.04847496 56.98664428 136.77094063 58.33469122 138.70654297 60.05175781 C141.18731436 62.22508317 143.69209991 64.12883056 146.45654297 65.92675781 C153.33001963 70.404932 159.86377136 75.36249518 166.45654297 80.23925781 C203.65825989 107.72597973 240.37752172 133.73992777 283.95898438 150.28466797 C285.66476497 150.93663299 287.35467987 151.63128681 289.02832031 152.36181641 C291.65321537 153.46582067 291.65321537 153.46582067 295.45654297 153.23925781 C295.45654297 153.89925781 295.45654297 154.55925781 295.45654297 155.23925781 C296.24351562 155.38621094 296.24351562 155.38621094 297.04638672 155.53613281 C301.28656153 156.35453594 305.49984452 157.23706901 309.69482422 158.26269531 C310.80966187 158.53388184 310.80966187 158.53388184 311.94702148 158.81054688 C313.42942853 159.17382069 314.91045752 159.54277489 316.38989258 159.91796875 C320.50720644 160.92434927 324.18132066 161.44091924 328.45654297 161.23925781 C328.45654297 161.56925781 328.45654297 161.89925781 328.45654297 162.23925781 C330.22637231 162.55739467 331.99748924 162.8683679 333.76904297 163.17675781 C334.75517578 163.35078125 335.74130859 163.52480469 336.75732422 163.70410156 C388.442975 171.18132876 437.76776361 156.32865989 479.43115234 125.79199219 C485.55888326 121.20095648 491.39286584 116.37327011 497.01904297 111.17675781 C520.99944347 89.05993682 520.99944347 89.05993682 535.78076172 89.14160156 C536.80878906 89.14482422 537.83681641 89.14804687 538.89599609 89.15136719 C540.5037793 89.16393555 540.5037793 89.16393555 542.14404297 89.17675781 C543.2275 89.18126953 544.31095703 89.18578125 545.42724609 89.19042969 C548.10373382 89.20222038 550.78011074 89.21867718 553.45654297 89.23925781 C553.45654297 89.89925781 553.45654297 90.55925781 553.45654297 91.23925781 C554.71466797 91.54863281 555.97279297 91.85800781 557.26904297 92.17675781 C568.09013538 95.84059225 575.34155889 104.35772182 580.45654297 114.23925781 C583.11674004 119.81184188 585.00512783 125.03229968 585.45654297 131.23925781 C585.50810547 131.86703125 585.55966797 132.49480469 585.61279297 133.14160156 C586.9430764 162.90669344 566.21778484 193.00364394 547.24023438 214.01611328 C544.6832278 216.79377094 542.08003825 219.52443111 539.45654297 222.23925781 C538.54799561 223.18067627 538.54799561 223.18067627 537.62109375 224.14111328 C530.28575321 231.70140676 522.95885531 238.98306118 514.45654297 245.23925781 C513.52382568 245.94598633 513.52382568 245.94598633 512.57226562 246.66699219 C501.70626949 254.89811714 490.59611938 262.03589771 478.45654297 268.23925781 C477.81120605 268.57151367 477.16586914 268.90376953 476.50097656 269.24609375 C456.36551733 279.48410763 433.94165431 285.58638344 411.51123047 287.87988281 C408.41942614 288.13873206 408.41942614 288.13873206 405.45654297 289.23925781 C339.4584411 291.20274628 282.19416335 263.97351617 231.5625 223.89990234 C229.62847203 222.37483183 227.68442669 220.86421103 225.73388672 219.36035156 C218.91808227 214.09173947 212.33720889 208.61264102 205.85473633 202.9387207 C201.36784263 199.01276191 196.80090472 195.20589425 192.16357422 191.45800781 C189.76960489 189.49585113 187.42247173 187.48861145 185.08276367 185.46240234 C146.87722465 152.5239189 91.85180216 112.31190698 38.45654297 116.23925781 C21.2608469 117.54502725 4.78895639 121.10960284 -10.54345703 129.23925781 C-12.23341797 130.09970703 -12.23341797 130.09970703 -13.95751953 130.97753906 C-38.64016322 144.1945201 -54.31514764 165.46046972 -62.58251953 191.89941406 C-66.38822478 205.12656037 -66.64961641 217.69913096 -66.41650391 231.40332031 C-66.32808867 241.34743406 -66.68534669 250.66303878 -71.41845703 259.61425781 C-71.91087891 260.57074219 -72.40330078 261.52722656 -72.91064453 262.51269531 C-77.22522413 269.71742392 -83.19854327 275.13538854 -91.35595703 277.61425781 C-94.54345703 278.23925781 -94.54345703 278.23925781 -98.54345703 278.23925781 C-98.87345703 278.89925781 -99.20345703 279.55925781 -99.54345703 280.23925781 C-122.5293488 276.65948778 -139.72693891 263.59505182 -153.55639648 245.14697266 C-158.8500178 237.78584067 -163.34130357 229.97257895 -167.61083984 221.98291016 C-168.39559479 220.51570601 -169.19798651 219.05795461 -170.00439453 217.60253906 C-188.31602706 183.25364875 -189.92030502 139.94985234 -179.22412109 103.13427734 C-166.88623813 63.74002139 -137.82445568 33.34191674 -101.89770508 14.13867188 C-70.36894146 -2.17990369 -34.59831572 -3.48709431 0 0 Z " fill="#4ACAFE" transform="translate(294.54345703125,438.7607421875)"/>
<path d="M0 0 C0.55445801 0.40041504 1.10891602 0.80083008 1.68017578 1.21337891 C53.72805323 39.05668189 80.25405827 99.66868999 90.25 161.75 C98.46518521 215.8260527 93.70034301 273.33516708 72.49633789 324.06420898 C68.64720657 333.20878676 68.64720657 333.20878676 68 343 C68.66 343.99 69.32 344.98 70 346 C78.36471149 345.57104044 84.29669818 340.00539077 89.875 334.25 C119.09129506 300.68523312 128.60531559 251.47194563 139.625 209.5 C148.10007362 177.25587576 156.82885668 144.13611979 175.65234375 116.13671875 C177.14801997 113.95364312 177.14801997 113.95364312 178 111 C178.66 111 179.32 111 180 111 C180.24363281 110.27425781 180.48726562 109.54851562 180.73828125 108.80078125 C182.15514759 105.65560117 183.83115811 103.69795719 186.1875 101.1875 C187.39599609 99.88425781 187.39599609 99.88425781 188.62890625 98.5546875 C189.41136719 97.71164063 190.19382812 96.86859375 191 96 C192.21395934 94.60905685 193.42284167 93.21365506 194.625 91.8125 C203.45307658 81.76053099 215.58740452 68.49933635 229.52734375 66.66796875 C235.08501814 66.44231881 239.18556511 67.20762777 244 70 C247.92715561 74.03329495 249.74414769 77.7399713 250.375 83.3125 C249.54130979 91.51045375 245.04620609 96.74341038 239 102 C237.31741637 103.36027053 235.62945919 104.713909 233.9375 106.0625 C193.35402948 138.96350285 178.18089613 188.44560431 162.83062744 236.40551758 C156.44962972 256.33669924 150.09286161 276.09550108 141 295 C140.56719727 295.90137695 140.13439453 296.80275391 139.68847656 297.73144531 C133.84265857 309.73480133 127.16641557 320.75203602 119.15405273 331.43212891 C118.05719076 332.92230187 117.0263785 334.46043225 116 336 C115.34 336 114.68 336 114 336 C113.75121094 336.56460937 113.50242187 337.12921875 113.24609375 337.7109375 C103.81682127 355.03242237 82.79396991 368.45104307 65 376 C55.51159538 378.51553053 45.572634 377.86554903 37 373 C34.5625 370.875 34.5625 370.875 33 369 C32.01 368.34 31.02 367.68 30 367 C28.6484375 364.3203125 28.6484375 364.3203125 27.375 361.125 C26.94960938 360.07570313 26.52421875 359.02640625 26.0859375 357.9453125 C24.27103162 353.02286994 23.85982323 348.97606434 23.7890625 343.69140625 C23.76358124 342.21759655 23.73726276 340.74380114 23.71020508 339.27001953 C23.69696198 338.50127502 23.68371887 337.73253052 23.67007446 336.94049072 C22.72834688 287.25782546 7.25565278 242.85963102 -29 207.8125 C-47.58788172 190.10374721 -47.58788172 190.10374721 -70 180 C-71.00196516 179.00196903 -72.00164412 178.00164142 -73 177 C-75.99851793 175.23201494 -79.16586621 173.79794358 -82.3125 172.3125 C-83.231521 171.87623291 -84.15054199 171.43996582 -85.09741211 170.99047852 C-96.28020303 165.79201748 -108.00795984 160.97924136 -120 158 C-121.51289213 157.59136894 -123.02495546 157.17966244 -124.53637695 156.765625 C-140.03396804 152.57802499 -155.62319136 149.36986579 -171.39233398 146.39550781 C-233.4858702 134.62592796 -233.4858702 134.62592796 -251 110 C-259.8895232 94.83896702 -261.85425622 78.82424924 -257.64331055 61.85913086 C-248.4308468 28.40537958 -221.3078058 -0.27435885 -191.63769531 -17.19018555 C-132.28268861 -49.62266313 -53.52559614 -39.11905643 0 0 Z " fill="#218AFE" transform="translate(390,96)"/>
<path d="M0 0 C0.80179688 0.06316406 1.60359375 0.12632813 2.4296875 0.19140625 C6.55711385 0.54669753 8.20912612 1.07364681 11 4 C12.71677676 5.2258729 14.44751941 6.43229116 16.1875 7.625 C30.10430875 17.68622849 38.6767362 32.21638254 41.62109375 49.11328125 C48.09505372 98.43551238 25.93626101 147.76133001 -3.48046875 186.24951172 C-4.9768853 188.17452789 -6.48582202 190.08892971 -8 192 C-8.5259375 192.66870117 -9.051875 193.33740234 -9.59375 194.02636719 C-16.19719509 202.39575763 -23.06415443 210.42562556 -30.37109375 218.1875 C-32.45567602 220.41766231 -34.46426288 222.67284075 -36.4375 225 C-43.30909645 232.93265178 -50.92275986 240.41396005 -58.921875 247.203125 C-61.08186697 249.07078723 -63.17746543 251.00072001 -65.26977539 252.94360352 C-82.57497228 269 -82.57497228 269 -86 269 C-86 269.66 -86 270.32 -86 271 C-88.23298351 272.83566644 -90.47712835 274.55229204 -92.8125 276.25 C-93.52591553 276.77577637 -94.23933105 277.30155273 -94.97436523 277.84326172 C-96.51296134 278.97647424 -98.05348638 280.1070714 -99.59570312 281.23535156 C-101.9949658 282.99630512 -104.381676 284.77307123 -106.765625 286.5546875 C-129.05167781 303.17541145 -152.50538938 317.84052691 -177 331 C-177.84933105 331.46083984 -178.69866211 331.92167969 -179.57373047 332.39648438 C-220.10160575 354.32560021 -279.50582033 385.0770606 -327 381 C-331.1610986 379.46696367 -332.53935571 378.69096643 -335 375 C-335.50916603 370.50236674 -335.24050876 367.44988311 -332.6015625 363.71118164 C-328.82705516 359.67832769 -323.9084545 356.87784394 -319.3125 353.875 C-318.17623146 353.11964745 -317.04090308 352.36287881 -315.90649414 351.60473633 C-313.64794154 350.09550671 -311.38688934 348.59015555 -309.12402344 347.08740234 C-284.37478361 330.55051577 -260.5106456 312.32927821 -238.51171875 292.265625 C-237.16359349 291.04958666 -235.80962492 289.83920804 -234.42260742 288.66772461 C-227.88454585 283.10650489 -221.87275514 277.02370679 -215.81811523 270.94848633 C-213.94170525 269.06671726 -212.06001031 267.19035262 -210.17773438 265.31445312 C-204.23743718 259.3774014 -198.4311836 253.41251895 -193 247 C-191.5867645 245.4551874 -190.17059591 243.91304675 -188.75 242.375 C-183.72521117 236.7994333 -179.13467752 230.93126385 -174.54931641 224.99511719 C-172.90298153 222.87506541 -171.24005706 220.76881825 -169.57421875 218.6640625 C-162.44711317 209.63208843 -155.6587792 200.46023661 -149.26611328 190.89404297 C-148.04783417 189.07155756 -146.82007679 187.25583659 -145.58984375 185.44140625 C-143.02767837 181.64856571 -140.5059966 177.83014854 -138 174 C-137.47535156 173.19852539 -136.95070313 172.39705078 -136.41015625 171.57128906 C-127.36087445 157.68910561 -118.95418478 143.53569405 -111 129 C-110.41105957 127.92508301 -109.82211914 126.85016602 -109.21533203 125.74267578 C-101.98347969 112.49613742 -95.01524913 99.1460963 -88.3125 85.625 C-52.62550959 13.66078073 -52.62550959 13.66078073 -23 1 C-15.24042237 -1.47668711 -7.98611485 -0.98992231 0 0 Z " fill="#42C1FE" transform="translate(848,103)"/>
<path d="M0 0 C0.66 0.33 1.32 0.66 2 1 C3.5195764 1.15123831 5.04472502 1.24881693 6.5703125 1.31640625 C7.91416016 1.37924805 7.91416016 1.37924805 9.28515625 1.44335938 C10.22230469 1.48267578 11.15945313 1.52199219 12.125 1.5625 C13.54232422 1.62727539 13.54232422 1.62727539 14.98828125 1.69335938 C17.32537092 1.79959072 19.6625683 1.90163176 22 2 C22.92687325 4.78061975 23.12193396 6.42051859 23.11352539 9.2878418 C23.11344986 10.14850754 23.11337433 11.00917328 23.11329651 11.8959198 C23.10813522 12.82100845 23.10297394 13.74609711 23.09765625 14.69921875 C23.0962413 15.64940384 23.09482635 16.59958893 23.09336853 17.5785675 C23.08776875 20.61491029 23.07521632 23.65117948 23.0625 26.6875 C23.05748497 28.74544164 23.05292207 30.80338444 23.04882812 32.86132812 C23.0377994 37.90758046 23.02053493 42.95377775 23 48 C24.88900024 47.75552124 24.88900024 47.75552124 26.81616211 47.50610352 C32.20179394 46.91038527 37.52800988 46.87323168 42.94140625 46.90234375 C43.94968979 46.9037587 44.95797333 46.90517365 45.99681091 46.90663147 C49.18540542 46.91218395 52.37392708 46.92472739 55.5625 46.9375 C57.73762919 46.94252115 59.91275949 46.94708298 62.08789062 46.95117188 C67.39195151 46.96213777 72.69597055 46.97882786 78 47 C77.99777939 46.45098526 77.99555878 45.90197052 77.99327087 45.33631897 C77.97121642 39.64292041 77.95609274 33.9495339 77.94506836 28.25610352 C77.94002702 26.12881986 77.93319409 24.00153969 77.92456055 21.87426758 C77.91248621 18.82372174 77.90676986 15.77322155 77.90234375 12.72265625 C77.89718246 11.76537125 77.89202118 10.80808624 77.88670349 9.8217926 C77.88662796 8.94095505 77.88655243 8.06011749 77.88647461 7.15258789 C77.884254 6.37315323 77.88203339 5.59371857 77.87974548 4.79066467 C78 3 78 3 79 2 C90.385 1.505 90.385 1.505 102 1 C102 39.61 102 78.22 102 118 C90.615 118.495 90.615 118.495 79 119 C78.34 117.35 77.68 115.7 77 114 C77.66 114 78.32 114 79 114 C79 111.69 79 109.38 79 107 C78.34 106.67 77.68 106.34 77 106 C77.66 106 78.32 106 79 106 C78.835 104.91460938 78.67 103.82921875 78.5 102.7109375 C77.82862614 97.34703856 77.92852233 92.02156408 78 86.625 C78.02543456 84.65890831 78.04649302 82.69275355 78.0625 80.7265625 C78.07410156 79.86627441 78.08570313 79.00598633 78.09765625 78.11962891 C78.14100345 75.94402771 78.14100345 75.94402771 77 74 C77.66 74 78.32 74 79 74 C79 72.35 79 70.7 79 69 C60.19 69 41.38 69 22 69 C22.33 73.29 22.66 77.58 23 82 C23.07261775 85.05791013 23.11954781 88.08913112 23.09765625 91.14453125 C23.0962413 91.92519455 23.09482635 92.70585785 23.09336853 93.51017761 C23.08787963 95.94432825 23.07535073 98.37837833 23.0625 100.8125 C23.05747056 102.48762886 23.05291023 104.16275919 23.04882812 105.83789062 C23.0388081 109.89199468 23.0192138 113.94588809 23 118 C15.08 118 7.16 118 -1 118 C-1.0225555 102.91002097 -1.04098414 87.82005055 -1.05181217 72.73005867 C-1.05697298 65.72384158 -1.0640116 58.71763569 -1.07543945 51.71142578 C-1.08645426 44.95523804 -1.09227769 38.19906436 -1.09487724 31.44286728 C-1.09673077 28.85997204 -1.10035 26.27707747 -1.10573006 23.69418716 C-1.11294573 20.08793996 -1.11399071 16.48174149 -1.11352539 12.87548828 C-1.11712067 11.79799316 -1.12071594 10.72049805 -1.12442017 9.61035156 C-1.1230455 8.63156036 -1.12167084 7.65276917 -1.12025452 6.64431763 C-1.12117631 5.79073732 -1.1220981 4.93715702 -1.12304783 4.05771065 C-1 2 -1 2 0 0 Z " fill="#012650" transform="translate(526,795)"/>
<path d="M0 0 C1.02577148 0.07831055 1.02577148 0.07831055 2.07226562 0.15820312 C3.73621169 0.28619898 5.3994473 0.42337719 7.0625 0.5625 C8.20654987 4.65930565 8.18859467 8.60303531 8.16015625 12.828125 C8.1587413 13.62152283 8.15732635 14.41492065 8.15586853 15.23236084 C8.15028415 17.75911272 8.13773454 20.28577504 8.125 22.8125 C8.11998298 24.52864455 8.11542043 26.24479049 8.11132812 27.9609375 C8.10031984 32.16149269 8.08306596 36.36198117 8.0625 40.5625 C8.50762939 40.15620361 8.95275879 39.74990723 9.41137695 39.33129883 C12.85873654 36.26631375 15.85445303 33.83631027 20.25 32.25 C21.06855469 31.94449219 21.88710938 31.63898437 22.73046875 31.32421875 C33.59196888 27.77649258 44.66917403 28.98633409 55.0625 33.5625 C66.09009337 39.76195016 72.76214242 48.34566815 76.34375 60.43359375 C79.34324905 73.49119558 78.77713895 87.73406317 72.0625 99.5625 C71.65257812 100.31015625 71.24265625 101.0578125 70.8203125 101.828125 C64.74411745 111.92078797 56.18252589 117.28755061 45.0625 120.5625 C44.0725 120.8925 43.0825 121.2225 42.0625 121.5625 C28.79161271 122.55456388 19.01915011 120.60166892 8.64453125 111.953125 C7.86142578 111.26476562 7.86142578 111.26476562 7.0625 110.5625 C7.0625 111.490625 7.0625 112.41875 7.0625 113.375 C7.0625 115.4375 7.0625 117.5 7.0625 119.5625 C-0.1975 119.5625 -7.4575 119.5625 -14.9375 119.5625 C-14.9375 80.2925 -14.9375 41.0225 -14.9375 0.5625 C-9.44085973 -0.22273432 -5.41129453 -0.43098806 0 0 Z M12.0625 57.5625 C6.35668866 65.674596 6.37695479 73.97480251 7.0625 83.5625 C8.6887052 90.82345442 13.03973821 95.41374824 19.0625 99.5625 C25.32486126 102.76326242 33.63597119 102.57585013 40.3125 100.5625 C46.23080402 97.9861541 49.87123402 92.88671824 52.73828125 87.29296875 C54.15893681 83.29082699 54.52434284 79.81654765 54.4375 75.625 C54.42807373 74.92133301 54.41864746 74.21766602 54.40893555 73.49267578 C54.16917066 65.25278754 52.15715854 59.39217339 46.0625 53.5625 C34.83034405 46.27065683 21.34661427 48.27838573 12.0625 57.5625 Z " fill="#01254D" transform="translate(766.9375,793.4375)"/>
<path d="M0 0 C1.60101563 -0.05607422 1.60101563 -0.05607422 3.234375 -0.11328125 C4.76964844 -0.13068359 4.76964844 -0.13068359 6.3359375 -0.1484375 C7.74818604 -0.1781665 7.74818604 -0.1781665 9.18896484 -0.20849609 C11.625 0.375 11.625 0.375 13.28320312 2.50244141 C14.72866487 5.59692884 16.09570449 8.69517843 17.3828125 11.859375 C17.64292114 12.49504395 17.90302979 13.13071289 18.17102051 13.78564453 C19.03431472 15.89729944 19.89206776 18.0111616 20.75 20.125 C21.68312067 22.41118628 22.61776914 24.69674387 23.55258179 26.98223877 C24.21221162 28.59497808 24.87140244 30.20789702 25.53018188 31.82098389 C27.96781924 37.78531141 30.43040597 43.73893917 32.90625 49.6875 C33.44310173 50.97744118 33.44310173 50.97744118 33.99079895 52.29344177 C34.7152583 54.03400187 35.43973034 55.77455668 36.16421509 57.5151062 C41.70533726 70.83426384 47.20187312 84.16956606 52.5625 97.5625 C53.29750732 99.39603027 53.29750732 99.39603027 54.04736328 101.26660156 C56.0448329 106.28079016 57.91632928 111.24898784 59.625 116.375 C51.045 116.375 42.465 116.375 33.625 116.375 C32.14 112.62125 30.655 108.8675 29.125 105 C28.65513672 103.81744629 28.18527344 102.63489258 27.70117188 101.41650391 C27.33572266 100.48757324 26.97027344 99.55864258 26.59375 98.6015625 C26.21669922 97.64846191 25.83964844 96.69536133 25.45117188 95.71337891 C24.625 93.375 24.625 93.375 24.625 91.375 C8.455 91.375 -7.715 91.375 -24.375 91.375 C-25.365 94.675 -26.355 97.975 -27.375 101.375 C-28.40563289 104.10830862 -29.44848492 106.80363777 -30.5625 109.5 C-31.490625 111.76875 -32.41875 114.0375 -33.375 116.375 C-41.955 116.375 -50.535 116.375 -59.375 116.375 C-47.96641079 87.76576861 -36.44994784 59.20355574 -24.56176758 30.78979492 C-24.2707869 30.09428024 -23.97980621 29.39876556 -23.68000793 28.68217468 C-23.1077848 27.3149204 -22.5351916 25.94782092 -21.96220398 24.58088684 C-20.43115648 20.92307719 -18.91584377 17.25942098 -17.41796875 13.58789062 C-17.09707275 12.80254944 -16.77617676 12.01720825 -16.44555664 11.20806885 C-15.82664363 9.69118865 -15.20985952 8.17343766 -14.59545898 6.65472412 C-11.33173757 -1.34120311 -8.1951549 0.10808957 0 0 Z M-0.375 27.375 C-0.67567383 28.17212402 -0.67567383 28.17212402 -0.98242188 28.98535156 C-5.17761854 40.09168288 -9.4347602 51.16464024 -13.93554688 62.15136719 C-14.41604492 63.33520996 -14.41604492 63.33520996 -14.90625 64.54296875 C-15.19048828 65.23672607 -15.47472656 65.9304834 -15.76757812 66.64526367 C-16.485443 68.3839569 -16.485443 68.3839569 -16.375 70.375 C-5.485 70.375 5.405 70.375 16.625 70.375 C14.82068689 64.96206066 13.02088392 59.64758491 10.99609375 54.328125 C10.76092545 53.70903259 10.52575714 53.08994019 10.28346252 52.4520874 C9.54485118 50.50906936 8.80367594 48.56704097 8.0625 46.625 C7.56299257 45.31125816 7.06364257 43.99745645 6.56445312 42.68359375 C3.64532101 35.00960032 3.64532101 35.00960032 0.625 27.375 C0.295 27.375 -0.035 27.375 -0.375 27.375 Z " fill="#02264F" transform="translate(238.375,796.625)"/>
<path d="M0 0 C9.75115822 5.82905924 18.13363501 12.89748831 26.12695312 20.93212891 C26.85374268 21.65505127 26.85374268 21.65505127 27.59521484 22.39257812 C49.29637082 44.21195626 64.245569 75.21698412 64.62695312 106.18212891 C64.64540283 107.06320312 64.66385254 107.94427734 64.68286133 108.85205078 C64.62934529 114.34989642 63.83235336 117.60916196 60.12695312 121.93212891 C56.58566129 124.29299013 55.29945094 124.50482469 51.12695312 123.93212891 C43.97722805 119.64229386 42.47283926 113.17534082 40.05273438 105.54541016 C34.35317912 87.72719921 26.6415628 71.37246906 13.59570312 57.67431641 C12.12695312 55.93212891 12.12695312 55.93212891 12.12695312 53.93212891 C11.46695313 53.93212891 10.80695313 53.93212891 10.12695312 53.93212891 C10.12695312 53.27212891 10.12695312 52.61212891 10.12695312 51.93212891 C9.46695313 51.93212891 8.80695313 51.93212891 8.12695312 51.93212891 C6.43445138 50.29170414 4.77217854 48.61996447 3.12695312 46.93212891 C-5.19952095 39.59720442 -14.17247929 34.31911161 -24.09350586 29.39477539 C-31.33569838 25.67399818 -36.68335046 21.31152173 -40.37304688 13.93212891 C-41.37084784 7.94532314 -40.49849652 2.57695469 -37.21289062 -2.52099609 C-27.35450004 -13.90269485 -10.67812192 -6.08786565 0 0 Z " fill="#228CFE" transform="translate(313.873046875,304.06787109375)"/>
<path d="M0 0 C0.89267578 0.00322266 1.78535156 0.00644531 2.70507812 0.00976562 C4.09823242 0.02233398 4.09823242 0.02233398 5.51953125 0.03515625 C6.45990234 0.03966797 7.40027344 0.04417969 8.36914062 0.04882812 C10.69016837 0.06060999 13.01106769 0.07706067 15.33203125 0.09765625 C15.34083061 1.12336731 15.34083061 1.12336731 15.34980774 2.1697998 C15.41390518 9.30812961 15.49836737 16.4460154 15.59448242 23.58398438 C15.62928912 26.24548232 15.65571886 28.90668768 15.6784668 31.56835938 C15.71212714 35.40134122 15.76445139 39.23369141 15.8203125 43.06640625 C15.82670242 44.25004761 15.83309235 45.43368896 15.8396759 46.65319824 C15.9731388 54.20860406 16.67580147 60.11331157 20.95703125 66.53515625 C24.04939656 68.56960711 26.66137795 68.70982757 30.30859375 68.921875 C32.33203125 69.09765625 32.33203125 69.09765625 34.33203125 70.09765625 C40.10916936 69.50838816 44.83233083 67.8474066 49.33203125 64.09765625 C52.75813041 59.37200223 53.44517959 55.33584565 53.53735352 49.59472656 C53.55729874 48.49388733 53.57724396 47.3930481 53.59779358 46.2588501 C53.62286232 44.48523102 53.62286232 44.48523102 53.6484375 42.67578125 C53.6692186 41.46065857 53.68999969 40.24553589 53.71141052 38.99359131 C53.77679953 35.11167052 53.83574176 31.22968205 53.89453125 27.34765625 C53.93772657 24.71613883 53.98134119 22.08462826 54.02539062 19.453125 C54.13247008 13.00137365 54.23425639 6.54955496 54.33203125 0.09765625 C57.97784812 0.06878113 61.62363588 0.0509004 65.26953125 0.03515625 C66.31044922 0.02677734 67.35136719 0.01839844 68.42382812 0.00976562 C69.41318359 0.00654297 70.40253906 0.00332031 71.421875 0 C72.79653931 -0.00785522 72.79653931 -0.00785522 74.19897461 -0.01586914 C76.33203125 0.09765625 76.33203125 0.09765625 77.33203125 1.09765625 C77.42719336 3.83654045 77.45757719 6.55013566 77.44555664 9.28930664 C77.44570267 10.14776688 77.44584869 11.00622711 77.44599915 11.89070129 C77.44529972 14.74226363 77.43750595 17.5937615 77.4296875 20.4453125 C77.42782343 22.41686467 77.42639947 24.3884173 77.42539978 26.35997009 C77.42157376 31.55991892 77.41174277 36.75984 77.4006958 41.95977783 C77.39048347 47.26159286 77.38590254 52.56341235 77.38085938 57.86523438 C77.37012057 68.27605584 77.3525231 78.6868494 77.33203125 89.09765625 C69.74203125 89.09765625 62.15203125 89.09765625 54.33203125 89.09765625 C53.83703125 85.13765625 53.83703125 85.13765625 53.33203125 81.09765625 C52.72617187 81.56816406 52.1203125 82.03867187 51.49609375 82.5234375 C40.38265549 90.78157701 30.05845749 92.63594218 16.30859375 90.6640625 C7.83156478 88.75257557 1.23292018 84.36229269 -3.60546875 77.09765625 C-6.924605 71.57765904 -7.9198289 65.69978369 -7.89501953 59.33618164 C-7.89486847 58.03536148 -7.89471741 56.73454132 -7.89456177 55.39430237 C-7.88435156 53.99463748 -7.87391962 52.5949742 -7.86328125 51.1953125 C-7.85954608 49.7480031 -7.85670149 48.30069114 -7.85470581 46.8533783 C-7.84710899 43.06400438 -7.827495 39.2747864 -7.80529785 35.48547363 C-7.78475378 31.61077991 -7.77568587 27.73606074 -7.765625 23.86132812 C-7.74424492 16.2733668 -7.71015737 8.68553346 -7.66796875 1.09765625 C-4.78531726 0.13677242 -2.99134604 -0.01905316 0 0 Z " fill="#02254E" transform="translate(655.66796875,823.90234375)"/>
<path d="M0 0 C-1.34849837 4.35970831 -3.04907846 8.31341438 -5.125 12.375 C-5.66382813 13.43460938 -6.20265625 14.49421875 -6.7578125 15.5859375 C-7.16773438 16.38257813 -7.57765625 17.17921875 -8 18 C-11.85443347 16.74311952 -15.28529179 15.37289124 -18.875 13.5 C-25.05147291 10.87143815 -32.11699433 10.35380907 -38.625 11.8125 C-41.10870329 12.89788478 -41.10870329 12.89788478 -43 15 C-43.16677282 18.58343976 -43.16677282 18.58343976 -43 22 C-42.33613281 22.12117187 -41.67226563 22.24234375 -40.98828125 22.3671875 C-36.4432655 23.22974523 -32.24553111 24.11309728 -28 26 C-26.00379834 26.67795528 -24.00461299 27.34733531 -22 28 C-21.505 27.01 -21.505 27.01 -21 26 C-21 26.99 -21 27.98 -21 29 C-20.3709375 29.14695312 -19.741875 29.29390625 -19.09375 29.4453125 C-11.24609729 31.50177571 -5.75455052 34.59305594 -0.625 40.9375 C3.13521838 48.0240654 4.11304925 54.71689224 1.875 62.4375 C-1.47172602 71.42323012 -6.19105314 75.6618627 -14.8046875 79.7734375 C-21.70302026 82.42145276 -27.85880911 83.36418435 -35.1875 83.3125 C-36.01830078 83.30758545 -36.84910156 83.3026709 -37.70507812 83.29760742 C-49.14588349 83.08193099 -58.82275699 80.16000497 -69 75 C-68.38188466 70.44684052 -66.53234107 66.71540233 -64.4375 62.6875 C-64.10814453 62.04232422 -63.77878906 61.39714844 -63.43945312 60.73242188 C-62.63175745 59.15214772 -61.81662387 57.57567895 -61 56 C-60.28585937 56.28746094 -59.57171875 56.57492187 -58.8359375 56.87109375 C-47.53280009 61.37055203 -35.60668832 65.9693192 -23.6328125 61.1328125 C-21.57966497 59.92859891 -21.57966497 59.92859891 -20.5 56.3125 C-20.335 55.219375 -20.17 54.12625 -20 53 C-20.66 53 -21.32 53 -22 53 C-22.57814453 52.33097656 -22.57814453 52.33097656 -23.16796875 51.6484375 C-25.83093766 49.25233328 -28.93870958 48.58410962 -32.3125 47.625 C-33.7582955 47.18779197 -35.20360002 46.7489574 -36.6484375 46.30859375 C-38.75583062 45.67376373 -40.86357482 45.04046853 -42.97363281 44.41455078 C-52.93414092 41.40775153 -60.30123983 37.71626571 -66.0625 28.8125 C-68.0470504 20.74199503 -68.23927883 12.43011838 -64.32421875 4.9296875 C-59.14138756 -2.62287476 -50.43675782 -7.0161652 -41.58984375 -8.6796875 C-27.18248749 -10.4615928 -12.19309508 -8.26420889 0 0 Z " fill="#022650" transform="translate(508,832)"/>
<path d="M0 0 C0.66 1.32 1.32 2.64 2 4 C2.66 4.33 3.32 4.66 4 5 C3.01 5 2.02 5 1 5 C1.495 12.92 1.495 12.92 2 21 C3.64871094 20.98839844 5.29742187 20.97679687 6.99609375 20.96484375 C9.14322804 20.95546762 11.29036355 20.94636723 13.4375 20.9375 C14.52611328 20.92912109 15.61472656 20.92074219 16.73632812 20.91210938 C17.77080078 20.90888672 18.80527344 20.90566406 19.87109375 20.90234375 C20.82943115 20.89710693 21.78776855 20.89187012 22.77514648 20.88647461 C25 21 25 21 26 22 C26.08669432 23.4887186 26.10703494 24.981445 26.09765625 26.47265625 C26.09443359 27.37177734 26.09121094 28.27089844 26.08789062 29.19726562 C26.07532227 30.61555664 26.07532227 30.61555664 26.0625 32.0625 C26.05798828 33.01189453 26.05347656 33.96128906 26.04882812 34.93945312 C26.0370011 37.29303065 26.02052025 39.64648477 26 42 C25.01 42.33 24.02 42.66 23 43 C22.34 43.66 21.68 44.32 21 45 C20.67 44.34 20.34 43.68 20 43 C14.06 43 8.12 43 2 43 C1.93093219 48.5689117 1.87125816 54.1363227 1.83520508 59.70532227 C1.82016754 61.59762625 1.79973215 63.48989566 1.77368164 65.38208008 C1.73707601 68.11027586 1.7202231 70.83800871 1.70703125 73.56640625 C1.69154739 74.40522842 1.67606354 75.2440506 1.66011047 76.10829163 C1.65859093 81.47516194 2.35275566 85.28514051 5 90 C11.26124037 92.08708012 17.944416 91.54971958 24 89 C28.85517241 99.8137931 28.85517241 99.8137931 29.125 105.75 C27.76481886 108.47036228 27.01322629 108.66556402 24.25 109.75 C12.62650959 113.56534418 0.07347199 113.3766159 -10.9921875 108.0390625 C-16.38735436 104.77417612 -18.81698229 99.77326997 -21 94 C-21.78685077 90.64850513 -22.12279389 87.55653167 -22.11352539 84.11791992 C-22.11344986 83.17732224 -22.11337433 82.23672455 -22.11329651 81.2676239 C-22.10813522 80.2653627 -22.10297394 79.2631015 -22.09765625 78.23046875 C-22.0962413 77.19432938 -22.09482635 76.15819 -22.09336853 75.09065247 C-22.08778242 71.78957196 -22.07523242 68.48855992 -22.0625 65.1875 C-22.05748321 62.94596452 -22.05292061 60.70442798 -22.04882812 58.46289062 C-22.03781753 52.97523716 -22.02109318 47.48762347 -22 42 C-22.66 42.99 -23.32 43.98 -24 45 C-25.32 45 -26.64 45 -28 45 C-28 44.34 -28 43.68 -28 43 C-29.98 42.67 -31.96 42.34 -34 42 C-34.33 42.66 -34.66 43.32 -35 44 C-36.20029908 41.59940183 -36.11459743 40.10639351 -36.09765625 37.4296875 C-36.09443359 36.53378906 -36.09121094 35.63789062 -36.08789062 34.71484375 C-36.07951172 33.77769531 -36.07113281 32.84054687 -36.0625 31.875 C-36.05798828 30.93011719 -36.05347656 29.98523438 -36.04882812 29.01171875 C-36.03702357 26.67441613 -36.02055759 24.33723939 -36 22 C-30.7052828 21.02750092 -27.57345093 21.20379272 -22 22 C-22 15.07 -22 8.14 -22 1 C-14.74 0.67 -7.48 0.34 0 0 Z " fill="#03264F" transform="translate(404,803)"/>
<path d="M0 0 C1.00953985 3.02861956 1.01252048 4.36084991 0.66015625 7.44921875 C0.56669922 8.29677734 0.47324219 9.14433594 0.37695312 10.01757812 C0.27318359 10.89865234 0.16941406 11.77972656 0.0625 12.6875 C-0.03740234 13.58017578 -0.13730469 14.47285156 -0.24023438 15.39257812 C-0.48765302 17.59578221 -0.74112279 19.79811781 -1 22 C-1.845625 22.03738281 -2.69125 22.07476563 -3.5625 22.11328125 C-11.68623359 22.58408854 -18.2692635 23.0154108 -24.8125 28.25 C-31.10951282 36.16624469 -31.14978885 44.80015989 -31.09765625 54.4296875 C-31.09553383 55.915186 -31.09553383 55.915186 -31.09336853 57.43069458 C-31.08779252 60.57882773 -31.07524442 63.72688852 -31.0625 66.875 C-31.0574819 69.01562397 -31.05291954 71.15624906 -31.04882812 73.296875 C-31.03868389 78.53129999 -31.01910376 83.76556944 -31 89 C-38.92 89 -46.84 89 -55 89 C-55 59.96 -55 30.92 -55 1 C-51.50421427 0.30084285 -49.00593207 -0.12234484 -45.57421875 -0.09765625 C-44.38022461 -0.09282227 -44.38022461 -0.09282227 -43.16210938 -0.08789062 C-42.34548828 -0.07951172 -41.52886719 -0.07113281 -40.6875 -0.0625 C-39.85154297 -0.05798828 -39.01558594 -0.05347656 -38.15429688 -0.04882812 C-36.10283351 -0.03710548 -34.05140727 -0.01917203 -32 0 C-30.93453047 3.1964086 -30.92572162 5.65747276 -31 9 C-30.53851563 8.61328125 -30.07703125 8.2265625 -29.6015625 7.828125 C-20.96637636 0.93362856 -11.06663613 -3.68887871 0 0 Z " fill="#03264E" transform="translate(362,824)"/>
<path d="M0 0 C0 38.61 0 77.22 0 117 C-11.385 117.495 -11.385 117.495 -23 118 C-23.33 117.34 -23.66 116.68 -24 116 C-16.41 116 -8.82 116 -1 116 C-1 78.38 -1 40.76 -1 2 C-7.93 2 -14.86 2 -22 2 C-21.505 2.99 -21.505 2.99 -21 4 C-20.90587539 5.37832271 -20.87206434 6.76104607 -20.87060547 8.14257812 C-20.86745331 8.99686401 -20.86430115 9.8511499 -20.86105347 10.73132324 C-20.8630777 11.65529907 -20.86510193 12.5792749 -20.8671875 13.53125 C-20.86623077 14.47810669 -20.86527405 15.42496338 -20.86428833 16.4005127 C-20.86360714 18.40454169 -20.8654572 20.40857289 -20.86962891 22.41259766 C-20.874978 25.4873549 -20.86968186 28.56196607 -20.86328125 31.63671875 C-20.86394204 33.58072949 -20.86522323 35.52474014 -20.8671875 37.46875 C-20.86516327 38.39272583 -20.86313904 39.31670166 -20.86105347 40.26867676 C-20.86578171 41.55010559 -20.86578171 41.55010559 -20.87060547 42.85742188 C-20.87140106 43.61083862 -20.87219666 44.36425537 -20.87301636 45.14050293 C-21 47 -21 47 -22 49 C-41.14 48.67 -60.28 48.34 -80 48 C-79.67 47.01 -79.34 46.02 -79 45 C-79 45.66 -79 46.32 -79 47 C-77.11099976 46.75552124 -77.11099976 46.75552124 -75.18383789 46.50610352 C-69.79820606 45.91038527 -64.47199012 45.87323168 -59.05859375 45.90234375 C-58.05031021 45.9037587 -57.04202667 45.90517365 -56.00318909 45.90663147 C-52.81459458 45.91218395 -49.62607292 45.92472739 -46.4375 45.9375 C-44.26237081 45.94252115 -42.08724051 45.94708298 -39.91210938 45.95117188 C-34.60804849 45.96213777 -29.30402945 45.97882786 -24 46 C-24.00222061 45.45098526 -24.00444122 44.90197052 -24.00672913 44.33631897 C-24.02878358 38.64292041 -24.04390726 32.9495339 -24.05493164 27.25610352 C-24.05997298 25.12881986 -24.06680591 23.00153969 -24.07543945 20.87426758 C-24.08751379 17.82372174 -24.09323014 14.77322155 -24.09765625 11.72265625 C-24.10281754 10.76537125 -24.10797882 9.80808624 -24.11329651 8.8217926 C-24.11337204 7.94095505 -24.11344757 7.06011749 -24.11352539 6.15258789 C-24.115746 5.37315323 -24.11796661 4.59371857 -24.12025452 3.79066467 C-24 2 -24 2 -23 1 C-21.37918489 0.84281532 -19.75209965 0.74913291 -18.125 0.68359375 C-17.14015625 0.64169922 -16.1553125 0.59980469 -15.140625 0.55664062 C-14.10421875 0.51732422 -13.0678125 0.47800781 -12 0.4375 C-10.96359375 0.39431641 -9.9271875 0.35113281 -8.859375 0.30664062 C-1.42212302 0 -1.42212302 0 0 0 Z " fill="#1A3F64" transform="translate(628,796)"/>
<path d="M0 0 C7.59 0 15.18 0 23 0 C22.67 15.18 22.34 30.36 22 46 C39.16 46 56.32 46 74 46 C74 46.33 74 46.66 74 47 C66.47030348 47.02526648 58.9406178 47.04283141 51.41088867 47.05493164 C48.84708243 47.0599737 46.28327909 47.06680714 43.71948242 47.07543945 C40.04344979 47.08751064 36.36745502 47.09322942 32.69140625 47.09765625 C31.53725723 47.10281754 30.38310822 47.10797882 29.19398499 47.11329651 C27.6024485 47.11340981 27.6024485 47.11340981 25.97875977 47.11352539 C25.03944107 47.115746 24.10012238 47.11796661 23.13233948 47.12025452 C21 47 21 47 20 46 C19.9072167 44.61839885 19.88252957 43.23211962 19.88647461 41.84741211 C19.88655014 40.96657455 19.88662567 40.085737 19.88670349 39.1782074 C19.89444542 37.74227989 19.89444542 37.74227989 19.90234375 36.27734375 C19.9037587 35.30213272 19.90517365 34.32692169 19.90663147 33.32215881 C19.91224867 30.19390857 19.92480407 27.06572877 19.9375 23.9375 C19.94251278 21.82226666 19.94707607 19.70703219 19.95117188 17.59179688 C19.96222369 12.39450393 19.97949984 7.19726392 20 2 C13.73 2 7.46 2 1 2 C1 38.63 1 75.26 1 113 C7.93 113 14.86 113 22 113 C22 113.33 22 113.66 22 114 C14.74 114 7.48 114 0 114 C0 76.38 0 38.76 0 0 Z " fill="#000924" transform="translate(526,798)"/>
<path d="M0 0 C4.51192827 1.26897983 7.20240614 3.82390369 10.5859375 6.890625 C13.87191386 9.76186648 17.33117906 12.38675871 20.80322266 15.02539062 C23.70222509 17.23084785 26.58215954 19.45286647 29.421875 21.734375 C41.62800126 31.52941459 54.59153088 39.94478618 68 48 C68.96164062 48.58394531 69.92328125 49.16789063 70.9140625 49.76953125 C88.47186506 60.25215461 106.73104415 67.34702136 126 74 C126 74.33 126 74.66 126 75 C119.65348547 74.46018152 114.29672477 72.93235515 108.375 70.625 C107.46693604 70.2734082 106.55887207 69.92181641 105.62329102 69.55957031 C75.4434384 57.57772611 48.48675571 39.74805979 23.14111328 19.69140625 C21.09880138 18.07804971 19.04922731 16.47455213 16.99609375 14.875 C4.98179566 5.50733893 4.98179566 5.50733893 0 1 C0 0.67 0 0.34 0 0 Z " fill="#43B9F6" transform="translate(503,643)"/>
<path d="M0 0 C0 0.66 0 1.32 0 2 C-1.58203125 3.41015625 -1.58203125 3.41015625 -3.8125 5.0625 C-8.58017103 8.64960487 -13.15241032 12.43360588 -17.71484375 16.27734375 C-20 18 -20 18 -22 18 C-22 18.66 -22 19.32 -22 20 C-25.49213895 23.71504144 -29.58672649 26.46460445 -34.0546875 28.87890625 C-39.64517273 32.10073207 -44.8222571 36.07971139 -49.9375 40 C-53.87067871 42.98351785 -58.01130028 45.57950559 -62.1875 48.20703125 C-68.6222268 52.30916958 -74.82516719 56.35472784 -80 62 C-80.8971875 62.680625 -80.8971875 62.680625 -81.8125 63.375 C-83.76866678 66.05185981 -83.18066268 68.80829261 -83 72 C-78.66579301 74.03165952 -74.71403788 74.52060632 -70 75 C-70 75.33 -70 75.66 -70 76 C-78.83086516 76.77162899 -78.83086516 76.77162899 -83.125 73.9375 C-85.50261787 70.21256533 -85.68704092 68.35125915 -85 64 C-81.72140213 57.17776791 -75.48277154 53.90645037 -69.3125 49.875 C-68.17623146 49.11964745 -67.04090308 48.36287881 -65.90649414 47.60473633 C-63.64794154 46.09550671 -61.38688934 44.59015555 -59.12402344 43.08740234 C-40.39870977 30.57556803 -21.6672469 17.20665346 -4.75 2.3125 C-2 0 -2 0 0 0 Z " fill="#35A8FA" transform="translate(598,407)"/>
<path d="M0 0 C6.7498872 0.53388938 12.52115518 2.95030788 18.75 5.5 C19.85674072 5.94923828 20.96348145 6.39847656 22.10375977 6.86132812 C42.33803714 15.16346833 61.56157901 25.03526316 79.96362305 36.86499023 C82.62947371 38.57203658 84.98243055 39.99414352 88 41 C89.67523395 42.32255312 91.34106818 43.65705519 93 45 C93.86625 45.495 94.7325 45.99 95.625 46.5 C98.10869251 48.0686479 99.40270848 49.56202873 101 52 C96.51754704 50.42299934 92.66853798 48.04463117 88.6875 45.5 C87.99398437 45.06220215 87.30046875 44.6244043 86.5859375 44.17333984 C84.38825631 42.78592985 82.19383617 41.39348058 80 40 C77.16960744 38.20363065 74.33579064 36.41283235 71.5 34.625 C70.86666748 34.22087891 70.23333496 33.81675781 69.58081055 33.40039062 C65.8073422 31.02162626 61.9774078 28.94683294 57.96923828 26.99169922 C55.43892666 25.71744608 53.01528068 24.2920159 50.57495117 22.85498047 C37.10030177 14.96644558 22.66729748 9.4178099 7.96557617 4.25732422 C2.20888609 2.20888609 2.20888609 2.20888609 0 0 Z " fill="#3DB3FA" transform="translate(332,448)"/>
<path d="M0 0 C1.02577148 0.07831055 1.02577148 0.07831055 2.07226562 0.15820312 C3.73621169 0.28619898 5.3994473 0.42337719 7.0625 0.5625 C7.0625 0.8925 7.0625 1.2225 7.0625 1.5625 C0.1325 1.5625 -6.7975 1.5625 -13.9375 1.5625 C-13.9375 40.1725 -13.9375 78.7825 -13.9375 118.5625 C-7.6675 118.5625 -1.3975 118.5625 5.0625 118.5625 C5.0625 114.9325 5.0625 111.3025 5.0625 107.5625 C6.3825 108.2225 7.7025 108.8825 9.0625 109.5625 C8.0725 110.0575 8.0725 110.0575 7.0625 110.5625 C7.0625 111.490625 7.0625 112.41875 7.0625 113.375 C7.0625 115.4375 7.0625 117.5 7.0625 119.5625 C-0.1975 119.5625 -7.4575 119.5625 -14.9375 119.5625 C-14.9375 80.2925 -14.9375 41.0225 -14.9375 0.5625 C-9.44085973 -0.22273432 -5.41129453 -0.43098806 0 0 Z " fill="#285886" transform="translate(766.9375,793.4375)"/>
<path d="M0 0 C0 20.13 0 40.26 0 61 C-2 59 -2 59 -2.24050903 56.6335144 C-2.2338472 55.14792526 -2.2338472 55.14792526 -2.22705078 53.63232422 C-2.22689972 52.51131317 -2.22674866 51.39030212 -2.22659302 50.23532104 C-2.21627045 49.02071198 -2.20594788 47.80610291 -2.1953125 46.5546875 C-2.1924826 45.31453888 -2.18965271 44.07439026 -2.18673706 42.79666138 C-2.17742174 39.49875367 -2.1594489 36.20104028 -2.1373291 32.90319824 C-2.11687474 29.5383543 -2.10773623 26.17348193 -2.09765625 22.80859375 C-2.07556515 16.20564294 -2.04101939 9.60285926 -2 3 C-8.93 3 -15.86 3 -23 3 C-23 2.34 -23 1.68 -23 1 C-15.71989011 -1.4267033 -7.67390962 0 0 0 Z " fill="#132F51" transform="translate(671,824)"/>
<path d="M0 0 C34.31197362 -1.99488219 64.08794019 11.11393808 93 28 C93.62245605 28.33580078 94.24491211 28.67160156 94.88623047 29.01757812 C98.12744819 30.78171109 99.91613168 31.87419752 102 35 C98.22164005 33.66304186 94.98175263 31.85705782 91.58422852 29.77636719 C62.68453554 12.07839426 33.6273171 3.56593986 0 1 C0 0.67 0 0.34 0 0 Z " fill="#40B6F7" transform="translate(330,553)"/>
<path d="M0 0 C0 4.17087753 -2.31154478 5.79289829 -5.0625 8.625 C-8.53759586 12.29074116 -11.84133559 15.95062977 -14.875 20 C-17.28599083 23.18574568 -19.62285061 25.7807304 -23 28 C-23.66 28 -24.32 28 -25 28 C-25.495 29.485 -25.495 29.485 -26 31 C-27.98260426 32.68732277 -29.9832342 34.35366057 -32 36 C-32.66 36.99 -33.32 37.98 -34 39 C-34.66 39 -35.32 39 -36 39 C-36.24105469 39.58910156 -36.48210938 40.17820312 -36.73046875 40.78515625 C-38.2438085 43.42535206 -39.85948212 44.65236262 -42.3125 46.4375 C-45.83784738 49.07728012 -48.92429237 51.83885605 -52 55 C-53.64864545 56.35555293 -55.31003995 57.69631653 -57 59 C-57.66 58.67 -58.32 58.34 -59 58 C-56.83472555 55.977658 -54.66781928 53.95711122 -52.5 51.9375 C-51.89929688 51.37611328 -51.29859375 50.81472656 -50.6796875 50.23632812 C-47.63899744 47.40589854 -44.57447821 44.62909412 -41.41015625 41.9375 C-35.61155626 36.89062247 -30.24182491 31.39063194 -24.81811523 25.94848633 C-22.94170525 24.06671726 -21.06001031 22.19035262 -19.17773438 20.31445312 C-13.69529471 14.83473567 -8.24437948 9.37569144 -3.23657227 3.45092773 C-2.21361025 2.25063884 -1.11515575 1.11515575 0 0 Z " fill="#3AAEF8" transform="translate(657,348)"/>
<path d="M0 0 C-3.61453442 2.40968961 -6.9914196 2.88059184 -11.1875 3.5625 C-11.91775391 3.68818359 -12.64800781 3.81386719 -13.40039062 3.94335938 C-17.04735387 4.56033898 -20.6896386 5.09618871 -24.36328125 5.52734375 C-27.94279869 5.87464378 -27.94279869 5.87464378 -31 7 C-32.81736798 7.03903527 -34.63646124 7.01311623 -36.453125 6.94921875 C-38.08531982 6.89205688 -38.08531982 6.89205688 -39.75048828 6.83374023 C-40.90532715 6.78548096 -42.06016602 6.73722168 -43.25 6.6875 C-44.41901855 6.64117432 -45.58803711 6.59484863 -46.79248047 6.54711914 C-55.29167657 6.17009598 -63.61197537 5.42568736 -72 4 C-72 3.67 -72 3.34 -72 3 C-71.43640274 3.00666183 -70.87280548 3.01332367 -70.29212952 3.02018738 C-64.33682054 3.08742552 -58.38162216 3.13216032 -52.42602539 3.16479492 C-50.21406666 3.17972649 -48.0021367 3.20007911 -45.7902832 3.22631836 C-33.75576628 3.36533543 -22.31273714 3.21822893 -10.52124023 0.6496582 C-6.93434801 -0.01211259 -3.63861486 -0.11135933 0 0 Z " fill="#48BFF4" transform="translate(731,721)"/>
<path d="M0 0 C3.64939971 1.64924795 6.7789888 3.90266482 10 6.25 C11.26001376 7.15550882 12.52045543 8.06042242 13.78125 8.96484375 C15.94058613 10.51725072 18.09865501 12.07131971 20.25390625 13.62939453 C33.57206824 23.23170039 47.2814638 32.6407319 62 40 C61.505 40.99 61.505 40.99 61 42 C44.10735821 32.56862431 28.31789436 22.51897348 12.77563477 10.97460938 C9.37528208 8.45454044 5.99741079 5.96589047 2.421875 3.69921875 C1.62265625 3.13847656 0.8234375 2.57773437 0 2 C0 1.34 0 0.68 0 0 Z " fill="#3FB6F9" transform="translate(473,529)"/>
<path d="M0 0 C0.66 0 1.32 0 2 0 C2.80819804 9.40105533 3.15982113 18.70631198 3.13037109 28.13598633 C3.12490394 30.22419153 3.13041365 32.312191 3.13671875 34.40039062 C3.13605957 35.7395838 3.13478173 37.07877686 3.1328125 38.41796875 C3.13168457 39.61188232 3.13055664 40.8057959 3.12939453 42.03588867 C3 45 3 45 2 48 C1.34 48 0.68 48 0 48 C0 32.16 0 16.32 0 0 Z " fill="#041B3D" transform="translate(546,863)"/>
<path d="M0 0 C0 0.66 0 1.32 0 2 C0.59167969 2.15855469 1.18335938 2.31710937 1.79296875 2.48046875 C7.21569926 4.08163388 10.35950451 5.65489248 14 10 C10.96523591 8.86196347 8.15333142 7.54430592 5.3125 6 C-4.69465373 0.97768315 -16.85647867 0.37839537 -27.44140625 3.8671875 C-31.47452368 5.65284254 -35.03796237 8.0623537 -38.65234375 10.57421875 C-41 12 -41 12 -44 12 C-30.14829408 -0.13773221 -17.73857016 -0.73271928 0 0 Z " fill="#45BAF2" transform="translate(848,528)"/>
<path d="M0 0 C0.66 0 1.32 0 2 0 C3.125 3.75 3.125 3.75 2 6 C-10.21 6 -22.42 6 -35 6 C-35.33 4.68 -35.66 3.36 -36 2 C-35.34 1.67 -34.68 1.34 -34 1 C-34 1.99 -34 2.98 -34 4 C-22.45 4 -10.9 4 1 4 C0.505 2.02 0.505 2.02 0 0 Z " fill="#031536" transform="translate(255,864)"/>
<path d="M0 0 C-1.22506898 0.65357278 -2.45529516 1.29748233 -3.6875 1.9375 C-4.37199219 2.29714844 -5.05648437 2.65679688 -5.76171875 3.02734375 C-15.07121191 7.07283031 -26.53474995 5.58411607 -35.98828125 2.8515625 C-38 2 -38 2 -39 0 C-37.60386935 0.14295891 -36.20810692 0.28951558 -34.8125 0.4375 C-34.03519531 0.51871094 -33.25789062 0.59992187 -32.45703125 0.68359375 C-30 1 -30 1 -27.5234375 1.51953125 C-20.04888305 2.94270493 -13.2837933 2.18756753 -6.19140625 -0.44140625 C-3.72758518 -1.06943907 -2.37660456 -0.81746535 0 0 Z " fill="#112A4A" transform="translate(702,910)"/>
<path d="M0 0 C0.66 0 1.32 0 2 0 C2.33 10.23 2.66 20.46 3 31 C1.35 30.67 -0.3 30.34 -2 30 C-1.34 29.67 -0.68 29.34 0 29 C0 26.69 0 24.38 0 22 C-0.66 21.67 -1.32 21.34 -2 21 C-1.34 21 -0.68 21 0 21 C-0.165 19.845 -0.33 18.69 -0.5 17.5 C-1.23320844 11.58196044 -1.4600015 5.84000599 0 0 Z " fill="#041A3A" transform="translate(605,880)"/>
<path d="M0 0 C-7.47228784 3.21037078 -15.03250709 5.56001522 -22.875 7.6875 C-24.545625 8.14866211 -24.545625 8.14866211 -26.25 8.61914062 C-29.16444732 9.42149148 -32.07972149 10.2191489 -35 11 C-35.69625488 11.19440674 -36.39250977 11.38881348 -37.10986328 11.58911133 C-40.06411463 12.23132329 -42.99045884 12.05787579 -46 12 C-42.92909358 10.31508189 -40.00957893 9.40090604 -36.60546875 8.59765625 C-35.56712891 8.34693359 -34.52878906 8.09621094 -33.45898438 7.83789062 C-31.28996658 7.32380103 -29.12069802 6.81076821 -26.95117188 6.29882812 C-21.33901884 4.9417769 -16.24726553 3.39431782 -11 1 C-8.41796875 0.234375 -8.41796875 0.234375 -6.1875 -0.25 C-5.43855469 -0.42015625 -4.68960938 -0.5903125 -3.91796875 -0.765625 C-2 -1 -2 -1 0 0 Z " fill="#38ADF8" transform="translate(592,468)"/>
<path d="M0 0 C0.80179687 0.0721875 1.60359375 0.144375 2.4296875 0.21875 C12.30692861 1.0250554 22.09624155 1.10105876 32 1 C29.39318014 3.73644073 27.30207076 4.22711173 23.6640625 4.328125 C21.98420657 4.31752654 20.30438991 4.29096073 18.625 4.25 C17.78710938 4.24484375 16.94921875 4.2396875 16.0859375 4.234375 C11.62522517 4.17826541 7.3883547 3.88624753 3 3 C3 2.34 3 1.68 3 1 C2.01 0.67 1.02 0.34 0 0 Z " fill="#102849" transform="translate(454,911)"/>
<path d="M0 0 C0 3.76653218 -1.01675539 4.75418406 -3.25 7.75 C-3.96929688 8.71550781 -4.68859375 9.68101562 -5.4296875 10.67578125 C-8.85195493 15.14381726 -12.39267054 19.5208879 -15.96191406 23.87207031 C-16.4565918 24.48018555 -16.95126953 25.08830078 -17.4609375 25.71484375 C-17.90228027 26.25230225 -18.34362305 26.78976074 -18.79833984 27.34350586 C-20.08746999 29.01435658 -20.08746999 29.01435658 -21.02587891 31.15844727 C-22 33 -22 33 -24.125 33.75 C-24.74375 33.8325 -25.3625 33.915 -26 34 C-22.91346104 29.17214487 -19.46422821 24.78592437 -15.8125 20.375 C-10.34690192 13.71759682 -5.09203549 6.94727322 0 0 Z " fill="#3BAFF7" transform="translate(689,308)"/>
<path d="M0 0 C5.5230608 2.03567902 9.98787385 5.18284466 14.8125 8.5 C16.13797852 9.39138672 16.13797852 9.39138672 17.49023438 10.30078125 C18.32490234 10.87183594 19.15957031 11.44289063 20.01953125 12.03125 C21.16578979 12.81338867 21.16578979 12.81338867 22.33520508 13.61132812 C22.8845874 14.06958984 23.43396973 14.52785156 24 15 C24 15.66 24 16.32 24 17 C24.7425 17.226875 25.485 17.45375 26.25 17.6875 C29.51139591 19.24407532 30.92894975 21.08518854 33 24 C30.11990523 22.64435467 27.6177534 21.09647521 25.05859375 19.20703125 C24.31464355 18.66216064 23.57069336 18.11729004 22.80419922 17.5559082 C22.02318848 16.9805835 21.24217773 16.40525879 20.4375 15.8125 C14.3532656 11.35821224 8.26203172 7.11787166 1.7734375 3.26953125 C1.18820312 2.85058594 0.60296875 2.43164062 0 2 C0 1.34 0 0.68 0 0 Z " fill="#40B6F7" transform="translate(433,588)"/>
<path d="M0 0 C0.33 0.66 0.66 1.32 1 2 C4.29164829 2.02895225 7.58326399 2.0467823 10.875 2.0625 C11.81214844 2.07087891 12.74929687 2.07925781 13.71484375 2.08789062 C14.61074219 2.09111328 15.50664062 2.09433594 16.4296875 2.09765625 C17.25710449 2.10289307 18.08452148 2.10812988 18.93701172 2.11352539 C21.06411757 2.13352138 21.06411757 2.13352138 23 1 C23 2.32 23 3.64 23 5 C14.42 5 5.84 5 -3 5 C-2.01 3.35 -1.02 1.7 0 0 Z " fill="#102745" transform="translate(182,908)"/>
<path d="M0 0 C1.88671875 1.51953125 1.88671875 1.51953125 3 3 C2.11957031 2.98839844 1.23914063 2.97679687 0.33203125 2.96484375 C-0.82941406 2.95582031 -1.99085938 2.94679688 -3.1875 2.9375 C-4.33605469 2.92589844 -5.48460937 2.91429687 -6.66796875 2.90234375 C-9.60820977 2.98851729 -12.13855748 3.38955893 -15 4 C-16.43628457 4.06266512 -17.8750555 4.08686347 -19.3125 4.0625 C-21.1378125 4.0315625 -21.1378125 4.0315625 -23 4 C-17.64611802 -1.35388198 -7.03171431 -0.89459566 0 0 Z " fill="#132F51" transform="translate(809,823)"/>
<path d="M0 0 C3.79160297 -0.05786668 7.58309311 -0.09355054 11.375 -0.125 C12.45523438 -0.14175781 13.53546875 -0.15851562 14.6484375 -0.17578125 C15.6796875 -0.18222656 16.7109375 -0.18867187 17.7734375 -0.1953125 C19.20308838 -0.21102295 19.20308838 -0.21102295 20.66162109 -0.22705078 C23 0 23 0 25 2 C25 3.32 25 4.64 25 6 C24.34 6 23.68 6 23 6 C23 5.01 23 4.02 23 3 C22.37432129 3.01571045 21.74864258 3.0314209 21.10400391 3.04760742 C18.27776069 3.10984675 15.45166139 3.14895462 12.625 3.1875 C11.64015625 3.21263672 10.6553125 3.23777344 9.640625 3.26367188 C8.22910156 3.27817383 8.22910156 3.27817383 6.7890625 3.29296875 C5.91975098 3.3086792 5.05043945 3.32438965 4.15478516 3.34057617 C3.44370605 3.22818604 2.73262695 3.1157959 2 3 C1.34 2.01 0.68 1.02 0 0 Z " fill="#183A5E" transform="translate(227,797)"/>
<path d="M0 0 C1.82724609 0.10828125 1.82724609 0.10828125 3.69140625 0.21875 C5.3150981 0.31260502 6.93879636 0.40634913 8.5625 0.5 C9.36236328 0.54769531 10.16222656 0.59539063 10.98632812 0.64453125 C15.66718977 0.91200906 20.31158379 1.05034541 25 1 C21.4822999 4.33348139 18.80575251 4.35124338 14.0625 4.25 C12.85722656 4.23453125 11.65195312 4.2190625 10.41015625 4.203125 C7.49398483 4.02942407 4.83702651 3.66753565 2 3 C2 2.34 2 1.68 2 1 C1.34 0.67 0.68 0.34 0 0 Z " fill="#122A49" transform="translate(398,911)"/>
<path d="M0 0 C1.125 1.75 1.125 1.75 2 4 C1.37224433 5.35208914 0.69580267 6.68163705 0 8 C-0.47628059 10.66307428 -0.73045355 13.30453552 -1 16 C-1.33 16 -1.66 16 -2 16 C-2.05449838 14.27119018 -2.09301688 12.54187288 -2.125 10.8125 C-2.14820312 9.84957031 -2.17140625 8.88664063 -2.1953125 7.89453125 C-1.9913544 4.87187222 -1.26874632 2.73230015 0 0 Z M-3 16 C-2.67 16 -2.34 16 -2 16 C-1.80306008 18.66626359 -1.61725218 21.33256639 -1.4375 24 C-1.38142578 24.74378906 -1.32535156 25.48757813 -1.26757812 26.25390625 C-0.93652715 31.33002118 -1.22836955 35.97011262 -2 41 C-2.33 41 -2.66 41 -3 41 C-3 32.75 -3 24.5 -3 16 Z " fill="#59E2FF" transform="translate(114,555)"/>
<path d="M0 0 C1.03115279 3.26913624 0.9638984 5.86041348 0.5625 9.25 C0.46066406 10.14203125 0.35882813 11.0340625 0.25390625 11.953125 C0.17011719 12.62859375 0.08632813 13.3040625 0 14 C0.66 14 1.32 14 2 14 C2.6496875 15.85625 2.6496875 15.85625 3.3125 17.75 C4.49131697 20.91596559 5.75231247 23.43121425 8 26 C6.25 25.875 6.25 25.875 4 25 C-0.02009641 19.71644472 -1.13976711 16.05659641 -1.125 9.5 C-1.12757813 8.3553125 -1.13015625 7.210625 -1.1328125 6.03125 C-1 3 -1 3 0 0 Z " fill="#113156" transform="translate(442,841)"/>
<path d="M0 0 C1.32 0.66 2.64 1.32 4 2 C3.01 2.495 3.01 2.495 2 3 C2 3.928125 2 4.85625 2 5.8125 C2 7.875 2 9.9375 2 12 C-5.26 12 -12.52 12 -20 12 C-19.67 11.34 -19.34 10.68 -19 10 C-12.73 10.33 -6.46 10.66 0 11 C0 7.37 0 3.74 0 0 Z " fill="#1E466C" transform="translate(772,901)"/>
<path d="M0 0 C0.33 0 0.66 0 1 0 C1.33 3.96 1.66 7.92 2 12 C2.66 12 3.32 12 4 12 C4.70180531 13.4096347 5.38593958 14.82807641 6.0625 16.25 C6.44535156 17.03890625 6.82820312 17.8278125 7.22265625 18.640625 C8.08564091 21.25993522 7.93045933 22.44855176 7 25 C1.37409177 16.73292111 -0.36122431 9.97380458 0 0 Z " fill="#133054" transform="translate(648,880)"/>
<path d="M0 0 C7.71589817 -0.1567564 15.31516461 0.32546899 23 1 C17.79811304 4.46792464 10.62410726 3.68135566 4.58984375 2.546875 C3.03818693 2.10081349 1.51314454 1.56303053 0 1 C0 0.67 0 0.34 0 0 Z " fill="#0C2142" transform="translate(460,895)"/>
<path d="M0 0 C0.66 0.33 1.32 0.66 2 1 C0.8553125 2.36125 0.8553125 2.36125 -0.3125 3.75 C-3.85458774 8.63043339 -4.82442756 14.17948279 -6 20 C-6.33 20 -6.66 20 -7 20 C-8.70578767 13.96413595 -7.30838669 10.70176774 -4.421875 5.234375 C-3.111451 3.17513728 -1.80158831 1.63202706 0 0 Z " fill="#0D2849" transform="translate(337,848)"/>
<path d="M0 0 C17.14285714 -0.28571429 17.14285714 -0.28571429 24 2 C23.67 2.66 23.34 3.32 23 4 C15.10276444 4.48350422 7.66467297 2.67664721 0 1 C0 0.67 0 0.34 0 0 Z " fill="#40B5F8" transform="translate(288,439)"/>
<path d="M0 0 C-2.18557694 1.78084047 -3.95187838 2.98281371 -6.625 3.9375 C-9.15211014 4.80105398 -9.15211014 4.80105398 -10.3125 7.125 C-10.539375 7.74375 -10.76625 8.3625 -11 9 C-11.99 9 -12.98 9 -14 9 C-11.07463636 3.14927272 -6.83948312 -0.80464507 0 0 Z " fill="#082144" transform="translate(789,827)"/>
<path d="M0 0 C7.14493126 2.00951192 12.75471652 8.16273522 17 14 C12.80912324 12.26763263 9.65136876 9.3566967 6.25 6.4375 C5.64800781 5.93025391 5.04601562 5.42300781 4.42578125 4.90039062 C2.92859272 3.62557363 1.46140412 2.31568608 0 1 C0 0.67 0 0.34 0 0 Z " fill="#42B7F8" transform="translate(471,616)"/>
<path d="M0 0 C0.66 0.33 1.32 0.66 2 1 C2.05384521 3.29141286 2.09272087 5.58318188 2.125 7.875 C2.14820313 9.15117188 2.17140625 10.42734375 2.1953125 11.7421875 C2 15 2 15 0 17 C-0.22786458 14.98177083 -0.45572917 12.96354167 -0.68359375 10.9453125 C-0.91292961 8.92595684 -0.91292961 8.92595684 -2 7 C-1.34 7 -0.68 7 0 7 C0 4.69 0 2.38 0 0 Z " fill="#031839" transform="translate(605,862)"/>
<path d="M0 0 C0.66 0 1.32 0 2 0 C2.67756882 1.55780332 3.34159457 3.12150096 4 4.6875 C4.37125 5.55761719 4.7425 6.42773438 5.125 7.32421875 C6.01870488 10.0572002 6.16449676 12.14700934 6 15 C3.08691178 13.54345589 2.94547684 11.64612352 1.875 8.625 C1.52179688 7.64789062 1.16859375 6.67078125 0.8046875 5.6640625 C0 3 0 3 0 0 Z " fill="#091F3E" transform="translate(287,890)"/>
<path d="M0 0 C2.7053871 4.05808065 5 8.04889399 5 13 C4.01 13 3.02 13 2 13 C1.46605821 11.5882217 0.94834896 10.17029756 0.4375 8.75 C0.14746094 7.96109375 -0.14257812 7.1721875 -0.44140625 6.359375 C-1.04522837 3.80896548 -0.8473932 2.44677771 0 0 Z " fill="#56D6FA" transform="translate(119,636)"/>
<path d="M0 0 C7.32627475 -0.47266289 12.37384327 0.90133798 19 4 C14.90913548 5.67641098 11.28488982 4.2409319 7.25 3.0625 C6.20392578 2.76956055 6.20392578 2.76956055 5.13671875 2.47070312 C3.42201027 1.9891754 1.71065123 1.49574843 0 1 C0 0.67 0 0.34 0 0 Z " fill="#3DB3F9" transform="translate(312,443)"/>
<path d="M0 0 C1 2 1 2 0.00390625 5.0390625 C-0.47175781 6.22242188 -0.94742188 7.40578125 -1.4375 8.625 C-1.91058594 9.81351563 -2.38367188 11.00203125 -2.87109375 12.2265625 C-3.24363281 13.14179687 -3.61617187 14.05703125 -4 15 C-5.109375 13.32421875 -5.109375 13.32421875 -6 11 C-5.390625 8.45703125 -5.390625 8.45703125 -4.25 5.8125 C-3.88390625 4.93207031 -3.5178125 4.05164063 -3.140625 3.14453125 C-2 1 -2 1 0 0 Z " fill="#112C4D" transform="translate(212,891)"/>
<path d="M0 0 C1.16015625 0.22042969 2.3203125 0.44085937 3.515625 0.66796875 C5.27132813 0.98701172 5.27132813 0.98701172 7.0625 1.3125 C8.40054687 1.58126953 8.40054687 1.58126953 9.765625 1.85546875 C9.765625 2.18546875 9.765625 2.51546875 9.765625 2.85546875 C4.155625 2.85546875 -1.454375 2.85546875 -7.234375 2.85546875 C-3.234375 -0.14453125 -3.234375 -0.14453125 0 0 Z " fill="#133256" transform="translate(473.234375,840.14453125)"/>
<path d="M0 0 C2 1 2 1 2.6875 2.5625 C3.14931685 6.16467146 2.5382496 9.41166932 2 13 C1.34 13 0.68 13 0 13 C0 8.71 0 4.42 0 0 Z " fill="#031638" transform="translate(772,819)"/>
<path d="M0 0 C-1.26538369 0.84158536 -2.53753779 1.67299748 -3.8125 2.5 C-4.87404297 3.19609375 -4.87404297 3.19609375 -5.95703125 3.90625 C-8 5 -8 5 -11 5 C-11 4.34 -11 3.68 -11 3 C-4.03571429 -1.41964286 -4.03571429 -1.41964286 0 0 Z " fill="#0F2C4C" transform="translate(827,907)"/>
<path d="M0 0 C2.29903669 4.10542266 4.35523153 8.69099505 3.625 13.4375 C3.41875 13.953125 3.2125 14.46875 3 15 C3 14.01 3 13.02 3 12 C2.34 12 1.68 12 1 12 C-0.3271261 8.0186217 -0.06915913 4.14954773 0 0 Z " fill="#12355D" transform="translate(429,895)"/>
<path d="M0 0 C0.33 0.66 0.66 1.32 1 2 C0.00390625 4.6015625 0.00390625 4.6015625 -1.4375 7.625 C-1.91058594 8.62789062 -2.38367188 9.63078125 -2.87109375 10.6640625 C-3.24363281 11.43492187 -3.61617188 12.20578125 -4 13 C-4.33 13 -4.66 13 -5 13 C-4.11034483 4.10344828 -4.11034483 4.10344828 -2 1 C-1.34 0.67 -0.68 0.34 0 0 Z " fill="#102E51" transform="translate(505,836)"/>
<path d="M0 0 C0.99 0 1.98 0 3 0 C4.26237731 2.52475462 4.09856404 4.31200466 4.0625 7.125 C4.05347656 8.03507813 4.04445313 8.94515625 4.03515625 9.8828125 C4.02355469 10.58148437 4.01195312 11.28015625 4 12 C3.34 11.67 2.68 11.34 2 11 C2.33 9.02 2.66 7.04 3 5 C2.34 5 1.68 5 1 5 C0.67 3.35 0.34 1.7 0 0 Z " fill="#113359" transform="translate(485,880)"/>
<path d="M0 0 C-1.34603482 4.03810445 -3.65336723 5.47295076 -7 8 C-7.66 8 -8.32 8 -9 8 C-7.47364599 4.11473526 -4.49771687 0 0 0 Z " fill="#0F294B" transform="translate(454,829)"/>
<path d="M0 0 C1 3 1 3 0.22265625 5.04296875 C-0.16019531 5.75066406 -0.54304687 6.45835937 -0.9375 7.1875 C-1.31777344 7.90292969 -1.69804687 8.61835937 -2.08984375 9.35546875 C-2.54037109 10.16951172 -2.54037109 10.16951172 -3 11 C-3.66 11 -4.32 11 -5 11 C-4.54917531 9.53932801 -4.08906463 8.08151968 -3.625 6.625 C-3.36976563 5.81289063 -3.11453125 5.00078125 -2.8515625 4.1640625 C-2 2 -2 2 0 0 Z " fill="#0D213F" transform="translate(226,801)"/>
<path d="M0 0 C5.94 1.485 5.94 1.485 12 3 C12 3.33 12 3.66 12 4 C10.741875 4.020625 9.48375 4.04125 8.1875 4.0625 C7.47980469 4.07410156 6.77210938 4.08570313 6.04296875 4.09765625 C4 4 4 4 1 3 C0.67 2.01 0.34 1.02 0 0 Z " fill="#0A1F3E" transform="translate(459,872)"/>
<path d="M0 0 C5.445 1.485 5.445 1.485 11 3 C9.02 3.99 9.02 3.99 7 5 C3.25 3.625 3.25 3.625 0 2 C0 1.34 0 0.68 0 0 Z " fill="#102C4E" transform="translate(452,891)"/>
<path d="M0 0 C7.57142857 1.85714286 7.57142857 1.85714286 10 5 C5.75776898 5.3636198 3.41831915 4.5393228 0 2 C0 1.34 0 0.68 0 0 Z " fill="#112D51" transform="translate(817,826)"/>
<path d="M0 0 C2.475 0.99 2.475 0.99 5 2 C5 2.66 5 3.32 5 4 C3.02 4.99 3.02 4.99 1 6 C0 5 0 5 -0.0625 2.4375 C-0.041875 1.633125 -0.02125 0.82875 0 0 Z " fill="#0A2446" transform="translate(447,888)"/>
<path d="M0 0 C4.51478398 0.53115106 7.34666857 2.36620292 11 5 C9.1875 5.625 9.1875 5.625 7 6 C6.01 5.34 5.02 4.68 4 4 C4 3.34 4 2.68 4 2 C2.68 1.34 1.36 0.68 0 0 Z " fill="#133458" transform="translate(492,863)"/>
<path d="M0 0 C1.875 0.125 1.875 0.125 4 1 C5.375 3.875 5.375 3.875 6 7 C5.01 8.485 5.01 8.485 4 10 C3.79503906 9.44570313 3.59007812 8.89140625 3.37890625 8.3203125 C3.10949219 7.59585938 2.84007812 6.87140625 2.5625 6.125 C2.29566406 5.40570312 2.02882813 4.68640625 1.75390625 3.9453125 C1.02083146 1.96351155 1.02083146 1.96351155 0 0 Z " fill="#112D4E" transform="translate(816,851)"/>
<path d="M0 0 C-2.88628401 1.57554035 -5.53342384 2.46276373 -8.75 3.125 C-9.54921875 3.29257813 -10.3484375 3.46015625 -11.171875 3.6328125 C-11.77515625 3.75398438 -12.3784375 3.87515625 -13 4 C-13 3.34 -13 2.68 -13 2 C-11.5882217 1.46605821 -10.17029756 0.94834896 -8.75 0.4375 C-7.96109375 0.14746094 -7.1721875 -0.14257812 -6.359375 -0.44140625 C-3.80896548 -1.04522837 -2.44677771 -0.8473932 0 0 Z " fill="#2183F4" transform="translate(228,69)"/>
<path d="M0 0 C1.45945288 0.08708669 2.91765868 0.19526907 4.375 0.3125 C5.59316406 0.39951172 5.59316406 0.39951172 6.8359375 0.48828125 C9 1 9 1 11 4 C6.94393835 3.53199289 3.53411321 3.12046792 0 1 C0 0.67 0 0.34 0 0 Z " fill="#16365B" transform="translate(663,910)"/>
<path d="M0 0 C1.98 0.99 1.98 0.99 4 2 C3.01 2.495 3.01 2.495 2 3 C1.53476937 4.89533342 1.53476937 4.89533342 1.375 7.0625 C1.25125 8.361875 1.1275 9.66125 1 11 C0.67 11 0.34 11 0 11 C0 7.37 0 3.74 0 0 Z " fill="#14365C" transform="translate(772,901)"/>
<path d="M0 0 C0 0.99 0 1.98 0 3 C-4.29 2.67 -8.58 2.34 -13 2 C-13 1.67 -13 1.34 -13 1 C-11.39602723 0.83147753 -9.7918131 0.66525114 -8.1875 0.5 C-7.29417969 0.4071875 -6.40085937 0.314375 -5.48046875 0.21875 C-3 0 -3 0 0 0 Z " fill="#20476F" transform="translate(806,894)"/>
<path d="M0 0 C-3.44450737 2.29633824 -5.93812283 2.54016485 -10 3 C-9.01 2.67 -8.02 2.34 -7 2 C-7 1.34 -7 0.68 -7 0 C-4.3333581 -1.33332095 -2.83319697 -0.67102033 0 0 Z " fill="#163558" transform="translate(493,911)"/>
<path d="M0 0 C1.99097846 2.98646769 2.94124926 5.59687262 4 9 C1 8 1 8 -0.25 5.625 C-1 3 -1 3 0 0 Z " fill="#133154" transform="translate(257,814)"/>
<path d="M0 0 C0.33 0 0.66 0 1 0 C1 2.31 1 4.62 1 7 C0.67 7 0.34 7 0 7 C-0.38133299 5.0085944 -0.71325582 3.00720923 -1 1 C-0.67 0.67 -0.34 0.34 0 0 Z " fill="#103A63" transform="translate(305,858)"/>
<path d="M0 0 C0.33 0 0.66 0 1 0 C1 1.98 1 3.96 1 6 C-0.0625 4.125 -0.0625 4.125 -1 2 C-0.67 1.34 -0.34 0.68 0 0 Z " fill="#113B64" transform="translate(305,850)"/>
<path d="M0 0 C0.33 0 0.66 0 1 0 C1 1.98 1 3.96 1 6 C-0.0625 4.125 -0.0625 4.125 -1 2 C-0.67 1.34 -0.34 0.68 0 0 Z " fill="#123C65" transform="translate(305,834)"/>
<path d="M0 0 C0.33 0 0.66 0 1 0 C1 1.98 1 3.96 1 6 C0.67 6 0.34 6 0 6 C0 4.02 0 2.04 0 0 Z " fill="#0F3861" transform="translate(305,899)"/>
<path d="M0 0 C0.33 0 0.66 0 1 0 C1 1.98 1 3.96 1 6 C0.67 6 0.34 6 0 6 C0 4.02 0 2.04 0 0 Z " fill="#0F3861" transform="translate(305,890)"/>
<path d="M0 0 C1.98 0 3.96 0 6 0 C6 0.33 6 0.66 6 1 C4.02 1 2.04 1 0 1 C0 0.67 0 0.34 0 0 Z " fill="#53C7F1" transform="translate(664,727)"/>
<path d="M0 0 C0.33 0 0.66 0 1 0 C1 1.65 1 3.3 1 5 C0.67 5 0.34 5 0 5 C0 3.35 0 1.7 0 0 Z " fill="#0E3761" transform="translate(305,884)"/>
<path d="M0 0 C0.66 1.32 1.32 2.64 2 4 C1.34 3.67 0.68 3.34 0 3 C0 2.01 0 1.02 0 0 Z " fill="#5CD0F0" transform="translate(115,636)"/>
<path d="M0 0 C4 1 4 1 4 1 Z " fill="#0F3861" transform="translate(355,847)"/>
<path d="M0 0 C4 1 4 1 4 1 Z " fill="#0E355D" transform="translate(349,847)"/>
<path d="M0 0 C4 1 4 1 4 1 Z " fill="#54CAF7" transform="translate(683,601)"/>
<path d="" fill="#0D355C" transform="translate(0,0)"/>
<path d="M0 0 C3 1 3 1 3 1 Z " fill="#0C355E" transform="translate(471,879)"/>
<path d="" fill="#0D3862" transform="translate(0,0)"/>
<path d="" fill="#0E3861" transform="translate(0,0)"/>
<path d="" fill="#103A63" transform="translate(0,0)"/>
<path d="" fill="#103B64" transform="translate(0,0)"/>
<path d="M0 0 C3 1 3 1 3 1 Z " fill="#123E65" transform="translate(493,824)"/>
<path d="M0 0 C3 1 3 1 3 1 Z " fill="#52C7F1" transform="translate(659,726)"/>
<path d="M0 0 C0.99 0.495 0.99 0.495 2 1 C1.01 1.495 1.01 1.495 0 2 C0 1.34 0 0.68 0 0 Z " fill="#54C7F0" transform="translate(656,726)"/>
<path d="M0 0 C3 1 3 1 3 1 Z " fill="#55C5F0" transform="translate(640,723)"/>
<path d="M0 0 C0.66 0 1.32 0 2 0 C1.67 0.66 1.34 1.32 1 2 C0.67 1.34 0.34 0.68 0 0 Z " fill="#53C4EF" transform="translate(618,717)"/>
<path d="M0 0 C3 1 3 1 3 1 Z " fill="#5DCBEE" transform="translate(201,717)"/>
<path d="M0 0 C3 1 3 1 3 1 Z " fill="#56CBF7" transform="translate(689,600)"/>
<path d="M0 0 C3 1 3 1 3 1 Z " fill="#55C7F7" transform="translate(308,559)"/>
<path d="M0 0 C3 1 3 1 3 1 Z " fill="#48BBF8" transform="translate(563,478)"/>
<path d="M0 0 C0.66 0.66 1.32 1.32 2 2 C1.34 2 0.68 2 0 2 C0 1.34 0 0.68 0 0 Z " fill="#36A3FA" transform="translate(416,458)"/>
<path d="M0 0 C0.99 0.495 0.99 0.495 2 1 C1.01 1.495 1.01 1.495 0 2 C0 1.34 0 0.68 0 0 Z " fill="#2C91F8" transform="translate(232,246)"/>
<path d="M0 0 C2 1 2 1 2 1 Z " fill="#0F3458" transform="translate(401,915)"/>
<path d="M0 0 C2 1 2 1 2 1 Z " fill="#0E385F" transform="translate(701,911)"/>
<path d="" fill="#0D345C" transform="translate(0,0)"/>
<path d="" fill="#0F365F" transform="translate(0,0)"/>
<path d="" fill="#0B345F" transform="translate(0,0)"/>
<path d="" fill="#103962" transform="translate(0,0)"/>
<path d="" fill="#0E3862" transform="translate(0,0)"/>
<path d="" fill="#0E375E" transform="translate(0,0)"/>
<path d="" fill="#0D355E" transform="translate(0,0)"/>
<path d="" fill="#0B365E" transform="translate(0,0)"/>
<path d="" fill="#0C3660" transform="translate(0,0)"/>
<path d="M0 0 C2 1 2 1 2 1 Z " fill="#103860" transform="translate(417,846)"/>
<path d="" fill="#0D355F" transform="translate(0,0)"/>
<path d="" fill="#113861" transform="translate(0,0)"/>
<path d="" fill="#0D3860" transform="translate(0,0)"/>
<path d="" fill="#123C66" transform="translate(0,0)"/>
<path d="" fill="#123B63" transform="translate(0,0)"/>
<path d="M0 0 C2 1 2 1 2 1 Z " fill="#123C65" transform="translate(338,825)"/>
<path d="" fill="#28557B" transform="translate(0,0)"/>
<path d="" fill="#224F76" transform="translate(0,0)"/>
<path d="M0 0 C2 1 2 1 2 1 Z " fill="#24557A" transform="translate(752,792)"/>
<path d="M0 0 C2 1 2 1 2 1 Z " fill="#54C7EF" transform="translate(704,727)"/>
<path d="M0 0 C2 1 2 1 2 1 Z " fill="#57C6ED" transform="translate(720,725)"/>
<path d="M0 0 C2 1 2 1 2 1 Z " fill="#55C7F1" transform="translate(650,725)"/>
<path d="M0 0 C2 1 2 1 2 1 Z " fill="#53C4F3" transform="translate(624,719)"/>
<path d="M0 0 C2 1 2 1 2 1 Z " fill="#5BCCEE" transform="translate(192,719)"/>
<path d="" fill="#5FCFEE" transform="translate(0,0)"/>
<path d="" fill="#5ECFEE" transform="translate(0,0)"/>
<path d="M0 0 C2 1 2 1 2 1 Z " fill="#4FC1F5" transform="translate(417,581)"/>
<path d="M0 0 C2 1 2 1 2 1 Z " fill="#51C3F5" transform="translate(550,576)"/>
<path d="M0 0 C2 1 2 1 2 1 Z " fill="#4EC2F5" transform="translate(402,573)"/>
<path d="M0 0 C2 1 2 1 2 1 Z " fill="#55C3F0" transform="translate(816,529)"/>
<path d="M0 0 C2 1 2 1 2 1 Z " fill="#49BCF5" transform="translate(633,453)"/>
<path d="M0 0 C2 1 2 1 2 1 Z " fill="#329AF9" transform="translate(464,440)"/>
<path d="M0 0 C2 1 2 1 2 1 Z " fill="#50C4F5" transform="translate(224,440)"/>
<path d="M0 0 C2 1 2 1 2 1 Z " fill="#39A7FA" transform="translate(369,429)"/>
<path d="" fill="#319CFC" transform="translate(0,0)"/>
<path d="" fill="#3298FC" transform="translate(0,0)"/>
<path d="" fill="#2E95FC" transform="translate(0,0)"/>
<path d="" fill="#3098FB" transform="translate(0,0)"/>
<path d="" fill="#2D93FB" transform="translate(0,0)"/>
<path d="M0 0 C2 1 2 1 2 1 Z " fill="#2C91F8" transform="translate(268,254)"/>
<path d="M0 0 C2 1 2 1 2 1 Z " fill="#2B91F5" transform="translate(240,247)"/>
<path d="" fill="#4EBFEF" transform="translate(0,0)"/>
<path d="M0 0 C2 1 2 1 2 1 Z " fill="#2B87EB" transform="translate(193,80)"/>
<path d="M0 0 C2 1 2 1 2 1 Z " fill="#2D8AED" transform="translate(209,72)"/>
<path d="" fill="#051B2C" transform="translate(0,0)"/>
<path d="" fill="#0E355C" transform="translate(0,0)"/>
<path d="" fill="#0F365A" transform="translate(0,0)"/>
<path d="" fill="#0F355B" transform="translate(0,0)"/>
<path d="" fill="#11385E" transform="translate(0,0)"/>
<path d="" fill="#11385F" transform="translate(0,0)"/>
<path d="" fill="#0F345C" transform="translate(0,0)"/>
<path d="" fill="#0F3459" transform="translate(0,0)"/>
<path d="" fill="#0F3359" transform="translate(0,0)"/>
<path d="" fill="#11345B" transform="translate(0,0)"/>
<path d="" fill="#0B335B" transform="translate(0,0)"/>
<path d="" fill="#0D355D" transform="translate(0,0)"/>
<path d="" fill="#0C3459" transform="translate(0,0)"/>
<path d="" fill="#0E3962" transform="translate(0,0)"/>
<path d="" fill="#0E325B" transform="translate(0,0)"/>
<path d="" fill="#0D335B" transform="translate(0,0)"/>
<path d="" fill="#0F345C" transform="translate(0,0)"/>
<path d="" fill="#0C3159" transform="translate(0,0)"/>
<path d="" fill="#0F345B" transform="translate(0,0)"/>
<path d="" fill="#0B335A" transform="translate(0,0)"/>
<path d="" fill="#0F365F" transform="translate(0,0)"/>
<path d="" fill="#0F3760" transform="translate(0,0)"/>
<path d="" fill="#10365D" transform="translate(0,0)"/>
<path d="" fill="#10365D" transform="translate(0,0)"/>
<path d="" fill="#0E375F" transform="translate(0,0)"/>
<path d="" fill="#0C3359" transform="translate(0,0)"/>
<path d="" fill="#0D355D" transform="translate(0,0)"/>
<path d="" fill="#0F375F" transform="translate(0,0)"/>
<path d="" fill="#0E335D" transform="translate(0,0)"/>
<path d="" fill="#103861" transform="translate(0,0)"/>
<path d="" fill="#0E375F" transform="translate(0,0)"/>
<path d="" fill="#0C355D" transform="translate(0,0)"/>
<path d="" fill="#0D3762" transform="translate(0,0)"/>
<path d="" fill="#0C3259" transform="translate(0,0)"/>
<path d="" fill="#0E345E" transform="translate(0,0)"/>
<path d="" fill="#0F385F" transform="translate(0,0)"/>
<path d="" fill="#11355D" transform="translate(0,0)"/>
<path d="" fill="#0F355C" transform="translate(0,0)"/>
<path d="" fill="#0F3861" transform="translate(0,0)"/>
<path d="" fill="#0C3560" transform="translate(0,0)"/>
<path d="" fill="#0E355C" transform="translate(0,0)"/>
<path d="" fill="#0F3A64" transform="translate(0,0)"/>
<path d="" fill="#11355B" transform="translate(0,0)"/>
<path d="" fill="#113960" transform="translate(0,0)"/>
<path d="" fill="#0E3B60" transform="translate(0,0)"/>
<path d="" fill="#0C365F" transform="translate(0,0)"/>
<path d="" fill="#0C3A63" transform="translate(0,0)"/>
<path d="" fill="#0F3963" transform="translate(0,0)"/>
<path d="" fill="#0E345C" transform="translate(0,0)"/>
<path d="" fill="#0D3A63" transform="translate(0,0)"/>
<path d="" fill="#0F385F" transform="translate(0,0)"/>
<path d="" fill="#0E3661" transform="translate(0,0)"/>
<path d="" fill="#0E385F" transform="translate(0,0)"/>
<path d="" fill="#0F375E" transform="translate(0,0)"/>
<path d="" fill="#0E355E" transform="translate(0,0)"/>
<path d="" fill="#0D365F" transform="translate(0,0)"/>
<path d="" fill="#0D365F" transform="translate(0,0)"/>
<path d="" fill="#0D3762" transform="translate(0,0)"/>
<path d="" fill="#0B345E" transform="translate(0,0)"/>
<path d="" fill="#10345E" transform="translate(0,0)"/>
<path d="" fill="#0E3960" transform="translate(0,0)"/>
<path d="" fill="#0E375D" transform="translate(0,0)"/>
<path d="" fill="#0A3059" transform="translate(0,0)"/>
<path d="" fill="#0F3660" transform="translate(0,0)"/>
<path d="" fill="#0F3860" transform="translate(0,0)"/>
<path d="" fill="#0C335E" transform="translate(0,0)"/>
<path d="" fill="#10375B" transform="translate(0,0)"/>
<path d="" fill="#0D3863" transform="translate(0,0)"/>
<path d="" fill="#133B61" transform="translate(0,0)"/>
<path d="" fill="#0D385F" transform="translate(0,0)"/>
<path d="" fill="#123E67" transform="translate(0,0)"/>
<path d="" fill="#0D3962" transform="translate(0,0)"/>
<path d="" fill="#103964" transform="translate(0,0)"/>
<path d="" fill="#0E3660" transform="translate(0,0)"/>
<path d="" fill="#103662" transform="translate(0,0)"/>
<path d="" fill="#0F3961" transform="translate(0,0)"/>
<path d="" fill="#103A61" transform="translate(0,0)"/>
<path d="" fill="#0F3861" transform="translate(0,0)"/>
<path d="" fill="#0D375E" transform="translate(0,0)"/>
<path d="" fill="#103962" transform="translate(0,0)"/>
<path d="" fill="#0E3965" transform="translate(0,0)"/>
<path d="" fill="#0F3861" transform="translate(0,0)"/>
<path d="" fill="#0D365F" transform="translate(0,0)"/>
<path d="" fill="#0F3A62" transform="translate(0,0)"/>
<path d="" fill="#09315C" transform="translate(0,0)"/>
<path d="" fill="#113561" transform="translate(0,0)"/>
<path d="" fill="#103760" transform="translate(0,0)"/>
<path d="" fill="#0D365E" transform="translate(0,0)"/>
<path d="" fill="#0F385F" transform="translate(0,0)"/>
<path d="" fill="#123D62" transform="translate(0,0)"/>
<path d="" fill="#113B64" transform="translate(0,0)"/>
<path d="" fill="#103A61" transform="translate(0,0)"/>
<path d="" fill="#133D64" transform="translate(0,0)"/>
<path d="" fill="#0F3961" transform="translate(0,0)"/>
<path d="" fill="#103760" transform="translate(0,0)"/>
<path d="" fill="#103C64" transform="translate(0,0)"/>
<path d="" fill="#0F3C65" transform="translate(0,0)"/>
<path d="" fill="#103A5F" transform="translate(0,0)"/>
<path d="" fill="#103961" transform="translate(0,0)"/>
<path d="" fill="#11395F" transform="translate(0,0)"/>
<path d="" fill="#0F3A61" transform="translate(0,0)"/>
<path d="" fill="#103A62" transform="translate(0,0)"/>
<path d="" fill="#123760" transform="translate(0,0)"/>
<path d="" fill="#133860" transform="translate(0,0)"/>
<path d="" fill="#103A62" transform="translate(0,0)"/>
<path d="" fill="#103B60" transform="translate(0,0)"/>
<path d="" fill="#0D335D" transform="translate(0,0)"/>
<path d="" fill="#0F3A64" transform="translate(0,0)"/>
<path d="" fill="#0C365D" transform="translate(0,0)"/>
<path d="" fill="#0D365E" transform="translate(0,0)"/>
<path d="" fill="#0F3862" transform="translate(0,0)"/>
<path d="" fill="#0F3A64" transform="translate(0,0)"/>
<path d="" fill="#113B63" transform="translate(0,0)"/>
<path d="" fill="#123C62" transform="translate(0,0)"/>
<path d="" fill="#163C65" transform="translate(0,0)"/>
<path d="" fill="#103761" transform="translate(0,0)"/>
<path d="" fill="#103963" transform="translate(0,0)"/>
<path d="" fill="#143F66" transform="translate(0,0)"/>
<path d="" fill="#0E3961" transform="translate(0,0)"/>
<path d="" fill="#133F66" transform="translate(0,0)"/>
<path d="" fill="#133D65" transform="translate(0,0)"/>
<path d="" fill="#0F3964" transform="translate(0,0)"/>
<path d="" fill="#103D65" transform="translate(0,0)"/>
<path d="" fill="#173F66" transform="translate(0,0)"/>
<path d="" fill="#0F3962" transform="translate(0,0)"/>
<path d="" fill="#143E65" transform="translate(0,0)"/>
<path d="" fill="#154168" transform="translate(0,0)"/>
<path d="" fill="#123F64" transform="translate(0,0)"/>
<path d="" fill="#123E66" transform="translate(0,0)"/>
<path d="" fill="#113C66" transform="translate(0,0)"/>
<path d="" fill="#143E65" transform="translate(0,0)"/>
<path d="" fill="#163F64" transform="translate(0,0)"/>
<path d="" fill="#134067" transform="translate(0,0)"/>
<path d="" fill="#103960" transform="translate(0,0)"/>
<path d="" fill="#153F66" transform="translate(0,0)"/>
<path d="" fill="#163D64" transform="translate(0,0)"/>
<path d="" fill="#133C65" transform="translate(0,0)"/>
<path d="" fill="#1C476D" transform="translate(0,0)"/>
<path d="" fill="#123D64" transform="translate(0,0)"/>
<path d="" fill="#174166" transform="translate(0,0)"/>
<path d="" fill="#1B4266" transform="translate(0,0)"/>
<path d="" fill="#1B4669" transform="translate(0,0)"/>
<path d="" fill="#1C4468" transform="translate(0,0)"/>
<path d="" fill="#255477" transform="translate(0,0)"/>
<path d="" fill="#204F71" transform="translate(0,0)"/>
<path d="" fill="#204D70" transform="translate(0,0)"/>
<path d="" fill="#214D75" transform="translate(0,0)"/>
<path d="" fill="#25567D" transform="translate(0,0)"/>
<path d="" fill="#275B7F" transform="translate(0,0)"/>
<path d="" fill="#24587E" transform="translate(0,0)"/>
<path d="" fill="#58C6EF" transform="translate(0,0)"/>
<path d="" fill="#57C7F1" transform="translate(0,0)"/>
<path d="" fill="#55C7F1" transform="translate(0,0)"/>
<path d="" fill="#58C7ED" transform="translate(0,0)"/>
<path d="" fill="#56C5EC" transform="translate(0,0)"/>
<path d="" fill="#5AC8F0" transform="translate(0,0)"/>
<path d="" fill="#57C8F1" transform="translate(0,0)"/>
<path d="" fill="#5BCBED" transform="translate(0,0)"/>
<path d="" fill="#5ECDEE" transform="translate(0,0)"/>
<path d="" fill="#57C8EF" transform="translate(0,0)"/>
<path d="" fill="#5BCFEF" transform="translate(0,0)"/>
<path d="" fill="#53BEEC" transform="translate(0,0)"/>
<path d="" fill="#5DCDED" transform="translate(0,0)"/>
<path d="" fill="#55C4F1" transform="translate(0,0)"/>
<path d="" fill="#61D0EE" transform="translate(0,0)"/>
<path d="" fill="#60CFEE" transform="translate(0,0)"/>
<path d="" fill="#56C6EF" transform="translate(0,0)"/>
<path d="" fill="#52C4F1" transform="translate(0,0)"/>
<path d="" fill="#5FCEEF" transform="translate(0,0)"/>
<path d="" fill="#5ECEEF" transform="translate(0,0)"/>
<path d="" fill="#60D2EF" transform="translate(0,0)"/>
<path d="" fill="#60CEEF" transform="translate(0,0)"/>
<path d="" fill="#5FD0EF" transform="translate(0,0)"/>
<path d="" fill="#54C6EE" transform="translate(0,0)"/>
<path d="" fill="#5ED2F5" transform="translate(0,0)"/>
<path d="" fill="#5FCFEE" transform="translate(0,0)"/>
<path d="" fill="#5DCDEF" transform="translate(0,0)"/>
<path d="" fill="#5FCFF1" transform="translate(0,0)"/>
<path d="" fill="#56C7EF" transform="translate(0,0)"/>
<path d="" fill="#58D1F2" transform="translate(0,0)"/>
<path d="" fill="#56C5EF" transform="translate(0,0)"/>
<path d="" fill="#51C2F1" transform="translate(0,0)"/>
<path d="" fill="#52C0F2" transform="translate(0,0)"/>
<path d="" fill="#5DCEF0" transform="translate(0,0)"/>
<path d="" fill="#56C4EF" transform="translate(0,0)"/>
<path d="" fill="#59C6F0" transform="translate(0,0)"/>
<path d="" fill="#53C1F2" transform="translate(0,0)"/>
<path d="" fill="#57C8EE" transform="translate(0,0)"/>
<path d="" fill="#60D0F1" transform="translate(0,0)"/>
<path d="" fill="#61D3EE" transform="translate(0,0)"/>
<path d="" fill="#5ECEF0" transform="translate(0,0)"/>
<path d="" fill="#55C5F0" transform="translate(0,0)"/>
<path d="" fill="#5BD3F6" transform="translate(0,0)"/>
<path d="" fill="#5AD2F7" transform="translate(0,0)"/>
<path d="" fill="#5ED1F3" transform="translate(0,0)"/>
<path d="" fill="#60CEEF" transform="translate(0,0)"/>
<path d="" fill="#62D3F4" transform="translate(0,0)"/>
<path d="" fill="#57C6F1" transform="translate(0,0)"/>
<path d="" fill="#51C2F4" transform="translate(0,0)"/>
<path d="" fill="#56CEF7" transform="translate(0,0)"/>
<path d="" fill="#54CAF7" transform="translate(0,0)"/>
<path d="" fill="#55CBF6" transform="translate(0,0)"/>
<path d="" fill="#53CDF8" transform="translate(0,0)"/>
<path d="" fill="#50C1F6" transform="translate(0,0)"/>
<path d="" fill="#55C8F6" transform="translate(0,0)"/>
<path d="" fill="#53C8F6" transform="translate(0,0)"/>
<path d="" fill="#53CBF6" transform="translate(0,0)"/>
<path d="" fill="#54C5F1" transform="translate(0,0)"/>
<path d="" fill="#51C8F5" transform="translate(0,0)"/>
<path d="" fill="#50C3F5" transform="translate(0,0)"/>
<path d="" fill="#50C2F3" transform="translate(0,0)"/>
<path d="" fill="#57CAF7" transform="translate(0,0)"/>
<path d="" fill="#5FD3F2" transform="translate(0,0)"/>
<path d="" fill="#55CBF7" transform="translate(0,0)"/>
<path d="" fill="#4FC2F6" transform="translate(0,0)"/>
<path d="" fill="#53C2F4" transform="translate(0,0)"/>
<path d="" fill="#4EC3F8" transform="translate(0,0)"/>
<path d="" fill="#54CCFB" transform="translate(0,0)"/>
<path d="" fill="#51C7F6" transform="translate(0,0)"/>
<path d="" fill="#55CBF9" transform="translate(0,0)"/>
<path d="" fill="#4EC3F7" transform="translate(0,0)"/>
<path d="" fill="#50C4F8" transform="translate(0,0)"/>
<path d="" fill="#4EC1F6" transform="translate(0,0)"/>
<path d="" fill="#4FC4F6" transform="translate(0,0)"/>
<path d="" fill="#4DC4F5" transform="translate(0,0)"/>
<path d="" fill="#50C8F9" transform="translate(0,0)"/>
<path d="" fill="#53C7F6" transform="translate(0,0)"/>
<path d="" fill="#53C6F3" transform="translate(0,0)"/>
<path d="" fill="#4DC3FB" transform="translate(0,0)"/>
<path d="" fill="#5FCEF4" transform="translate(0,0)"/>
<path d="" fill="#54C4EF" transform="translate(0,0)"/>
<path d="" fill="#4FC3F8" transform="translate(0,0)"/>
<path d="" fill="#53C2EC" transform="translate(0,0)"/>
<path d="" fill="#52C1EA" transform="translate(0,0)"/>
<path d="" fill="#4AC2FD" transform="translate(0,0)"/>
<path d="" fill="#4BC0FA" transform="translate(0,0)"/>
<path d="" fill="#5CCDF2" transform="translate(0,0)"/>
<path d="" fill="#5DD1F4" transform="translate(0,0)"/>
<path d="" fill="#58CBF1" transform="translate(0,0)"/>
<path d="" fill="#46B8F9" transform="translate(0,0)"/>
<path d="" fill="#46B8F9" transform="translate(0,0)"/>
<path d="" fill="#49BCF8" transform="translate(0,0)"/>
<path d="" fill="#4ABBF8" transform="translate(0,0)"/>
<path d="" fill="#46BDF6" transform="translate(0,0)"/>
<path d="" fill="#48BDF6" transform="translate(0,0)"/>
<path d="" fill="#49BAF5" transform="translate(0,0)"/>
<path d="" fill="#48BAF6" transform="translate(0,0)"/>
<path d="" fill="#58CBF2" transform="translate(0,0)"/>
<path d="" fill="#49BCF6" transform="translate(0,0)"/>
<path d="" fill="#49BBF7" transform="translate(0,0)"/>
<path d="" fill="#56C7F3" transform="translate(0,0)"/>
<path d="" fill="#4DBFF8" transform="translate(0,0)"/>
<path d="" fill="#58C7F1" transform="translate(0,0)"/>
<path d="" fill="#55C7F2" transform="translate(0,0)"/>
<path d="" fill="#4BBDF6" transform="translate(0,0)"/>
<path d="" fill="#48BEF4" transform="translate(0,0)"/>
<path d="" fill="#49BCFF" transform="translate(0,0)"/>
<path d="" fill="#47BDF7" transform="translate(0,0)"/>
<path d="" fill="#49BFF8" transform="translate(0,0)"/>
<path d="" fill="#4BBEF1" transform="translate(0,0)"/>
<path d="" fill="#32A2FC" transform="translate(0,0)"/>
<path d="" fill="#49BDFC" transform="translate(0,0)"/>
<path d="" fill="#42B3FB" transform="translate(0,0)"/>
<path d="" fill="#4CBCF3" transform="translate(0,0)"/>
<path d="" fill="#2E9BFC" transform="translate(0,0)"/>
<path d="" fill="#4CC2F8" transform="translate(0,0)"/>
<path d="" fill="#4ABCF3" transform="translate(0,0)"/>
<path d="" fill="#31A0FD" transform="translate(0,0)"/>
<path d="" fill="#39A6FB" transform="translate(0,0)"/>
<path d="" fill="#4BBBF1" transform="translate(0,0)"/>
<path d="" fill="#319DFE" transform="translate(0,0)"/>
<path d="" fill="#44B4F9" transform="translate(0,0)"/>
<path d="" fill="#4BBBF3" transform="translate(0,0)"/>
<path d="" fill="#339EFA" transform="translate(0,0)"/>
<path d="" fill="#34A1FC" transform="translate(0,0)"/>
<path d="" fill="#319BFD" transform="translate(0,0)"/>
<path d="" fill="#47B5F5" transform="translate(0,0)"/>
<path d="" fill="#4ABBF1" transform="translate(0,0)"/>
<path d="" fill="#45B8F9" transform="translate(0,0)"/>
<path d="" fill="#2F97FE" transform="translate(0,0)"/>
<path d="" fill="#3098FB" transform="translate(0,0)"/>
<path d="" fill="#47B8FB" transform="translate(0,0)"/>
<path d="" fill="#46B8F8" transform="translate(0,0)"/>
<path d="" fill="#2F97FC" transform="translate(0,0)"/>
<path d="" fill="#319BFB" transform="translate(0,0)"/>
<path d="" fill="#45B7F8" transform="translate(0,0)"/>
<path d="" fill="#339BFE" transform="translate(0,0)"/>
<path d="" fill="#319BFA" transform="translate(0,0)"/>
<path d="" fill="#49BCF1" transform="translate(0,0)"/>
<path d="" fill="#359AFE" transform="translate(0,0)"/>
<path d="" fill="#309AFC" transform="translate(0,0)"/>
<path d="" fill="#4BBAEE" transform="translate(0,0)"/>
<path d="" fill="#2F96FD" transform="translate(0,0)"/>
<path d="" fill="#3196FA" transform="translate(0,0)"/>
<path d="" fill="#2B93FF" transform="translate(0,0)"/>
<path d="" fill="#2F95FD" transform="translate(0,0)"/>
<path d="" fill="#2D94FC" transform="translate(0,0)"/>
<path d="" fill="#3098F9" transform="translate(0,0)"/>
<path d="" fill="#2F99FB" transform="translate(0,0)"/>
<path d="" fill="#3098FC" transform="translate(0,0)"/>
<path d="" fill="#4ABEF2" transform="translate(0,0)"/>
<path d="" fill="#2F97FC" transform="translate(0,0)"/>
<path d="" fill="#3195FD" transform="translate(0,0)"/>
<path d="" fill="#3397FB" transform="translate(0,0)"/>
<path d="" fill="#3095FA" transform="translate(0,0)"/>
<path d="" fill="#2E96FD" transform="translate(0,0)"/>
<path d="" fill="#2F96FD" transform="translate(0,0)"/>
<path d="" fill="#2F96FC" transform="translate(0,0)"/>
<path d="" fill="#309AFA" transform="translate(0,0)"/>
<path d="" fill="#46BFF7" transform="translate(0,0)"/>
<path d="" fill="#2F94FB" transform="translate(0,0)"/>
<path d="" fill="#2E94FA" transform="translate(0,0)"/>
<path d="" fill="#2F95FC" transform="translate(0,0)"/>
<path d="" fill="#3095F7" transform="translate(0,0)"/>
<path d="" fill="#2C95FD" transform="translate(0,0)"/>
<path d="" fill="#47BBF6" transform="translate(0,0)"/>
<path d="" fill="#2D92FA" transform="translate(0,0)"/>
<path d="" fill="#2D94FB" transform="translate(0,0)"/>
<path d="" fill="#2F95FA" transform="translate(0,0)"/>
<path d="" fill="#2E95FB" transform="translate(0,0)"/>
<path d="" fill="#2F97F9" transform="translate(0,0)"/>
<path d="" fill="#3096F9" transform="translate(0,0)"/>
<path d="" fill="#2F91FB" transform="translate(0,0)"/>
<path d="" fill="#2D93FB" transform="translate(0,0)"/>
<path d="" fill="#4BBFF8" transform="translate(0,0)"/>
<path d="" fill="#2E93FA" transform="translate(0,0)"/>
<path d="" fill="#4BBBEC" transform="translate(0,0)"/>
<path d="" fill="#2D94FD" transform="translate(0,0)"/>
<path d="" fill="#4DBCEB" transform="translate(0,0)"/>
<path d="" fill="#4ABEF5" transform="translate(0,0)"/>
<path d="" fill="#48BCF7" transform="translate(0,0)"/>
<path d="" fill="#2E94FA" transform="translate(0,0)"/>
<path d="" fill="#2E91FB" transform="translate(0,0)"/>
<path d="" fill="#2D94FF" transform="translate(0,0)"/>
<path d="" fill="#2E93F9" transform="translate(0,0)"/>
<path d="" fill="#3091F8" transform="translate(0,0)"/>
<path d="" fill="#2F94FA" transform="translate(0,0)"/>
<path d="" fill="#2E94FA" transform="translate(0,0)"/>
<path d="" fill="#4ABCF8" transform="translate(0,0)"/>
<path d="" fill="#2D92F8" transform="translate(0,0)"/>
<path d="" fill="#2C91FA" transform="translate(0,0)"/>
<path d="" fill="#3090F8" transform="translate(0,0)"/>
<path d="" fill="#3093FC" transform="translate(0,0)"/>
<path d="" fill="#4FBFED" transform="translate(0,0)"/>
<path d="" fill="#2C94FA" transform="translate(0,0)"/>
<path d="" fill="#2B90F8" transform="translate(0,0)"/>
<path d="" fill="#2C8EF7" transform="translate(0,0)"/>
<path d="" fill="#2D92F7" transform="translate(0,0)"/>
<path d="" fill="#2E8FF8" transform="translate(0,0)"/>
<path d="" fill="#2E8CED" transform="translate(0,0)"/>
<path d="" fill="#2C8FF4" transform="translate(0,0)"/>
<path d="" fill="#2D8EF2" transform="translate(0,0)"/>
<path d="" fill="#2E8CF1" transform="translate(0,0)"/>
<path d="" fill="#4FBEED" transform="translate(0,0)"/>
<path d="" fill="#4ABFF4" transform="translate(0,0)"/>
<path d="" fill="#2F97F9" transform="translate(0,0)"/>
<path d="" fill="#2D8EF5" transform="translate(0,0)"/>
<path d="" fill="#2C93FB" transform="translate(0,0)"/>
<path d="" fill="#2D90F7" transform="translate(0,0)"/>
<path d="" fill="#2D8FF6" transform="translate(0,0)"/>
<path d="" fill="#4BBFF4" transform="translate(0,0)"/>
<path d="" fill="#2B8DF3" transform="translate(0,0)"/>
<path d="" fill="#2B8CF4" transform="translate(0,0)"/>
<path d="" fill="#2E8DF3" transform="translate(0,0)"/>
<path d="" fill="#2C85E6" transform="translate(0,0)"/>
<path d="" fill="#4BC0F6" transform="translate(0,0)"/>
<path d="" fill="#2C8FF2" transform="translate(0,0)"/>
<path d="" fill="#2B84E8" transform="translate(0,0)"/>
<path d="" fill="#2C8DED" transform="translate(0,0)"/>
<path d="" fill="#2E88EA" transform="translate(0,0)"/>
<path d="" fill="#2D88E6" transform="translate(0,0)"/>
<path d="" fill="#2C88E7" transform="translate(0,0)"/>
<path d="" fill="#2B89F0" transform="translate(0,0)"/>
<path d="" fill="#2C85E8" transform="translate(0,0)"/>
<path d="" fill="#4EBDF1" transform="translate(0,0)"/>
<path d="" fill="#4CB6E7" transform="translate(0,0)"/>
<path d="" fill="#2B81E5" transform="translate(0,0)"/>
<path d="" fill="#2B83E7" transform="translate(0,0)"/>
<path d="" fill="#4CB7E6" transform="translate(0,0)"/>
<path d="" fill="#2984EB" transform="translate(0,0)"/>
<path d="" fill="#2B88ED" transform="translate(0,0)"/>
<path d="" fill="#4EBAE6" transform="translate(0,0)"/>
<path d="" fill="#2B84EA" transform="translate(0,0)"/>
<path d="" fill="#2A86F0" transform="translate(0,0)"/>
<path d="" fill="#2C85EB" transform="translate(0,0)"/>
<path d="" fill="#2986EF" transform="translate(0,0)"/>
<path d="" fill="#2F88EF" transform="translate(0,0)"/>
<path d="" fill="#2A86ED" transform="translate(0,0)"/>
<path d="" fill="#2D8BEE" transform="translate(0,0)"/>
<path d="" fill="#2B88F0" transform="translate(0,0)"/>
<path d="" fill="#2D8AF1" transform="translate(0,0)"/>
<path d="" fill="#2D89F0" transform="translate(0,0)"/>
</svg>
